<svg xmlns="http://www.w3.org/2000/svg" xmlns:xlink="http://www.w3.org/1999/xlink" width="500" zoomAndPan="magnify" viewBox="0 0 375 374.999991" height="500" preserveAspectRatio="xMidYMid meet" version="1.0"><defs><clipPath id="2101a2b6c5"><path d="M 0 49 L 375 49 L 375 326 L 0 326 Z M 0 49 " clip-rule="nonzero"/></clipPath><clipPath id="ae7012d185"><path d="M 45.976562 50.449219 L 73.746094 95.910156 L 74.15625 96.320312 C 112.210938 120.183594 148.828125 143.839844 186.367188 168.523438 L 187.5 167.1875 L 127.84375 102.902344 L 127.742188 102.800781 L 78.886719 64.539062 L 78.683594 64.4375 L 47.210938 49.113281 Z M 14.914062 240.316406 L 27.769531 241.242188 L 12.652344 221.59375 L 10.902344 222.316406 L 12.445312 235.273438 C 12.445312 235.582031 12.34375 235.996094 11.929688 236.097656 L 0 241.753906 L 0.515625 243.398438 L 14.503906 240.417969 C 14.605469 240.417969 14.707031 240.417969 14.8125 240.417969 Z M 31.472656 255.023438 L 13.679688 259.855469 L 12.960938 260.371094 L 6.582031 269.9375 L 7.714844 271.480469 L 21.289062 267.46875 L 21.804688 267.160156 L 32.5 256.667969 L 31.574219 255.125 Z M 59.65625 242.269531 L 35.175781 238.050781 L 34.351562 239.699219 L 44.226562 248.132812 C 44.535156 248.335938 44.636719 248.75 44.535156 249.160156 L 39.597656 261.398438 L 41.140625 262.222656 L 49.472656 250.496094 C 49.472656 250.394531 49.574219 250.394531 49.679688 250.292969 L 59.757812 242.269531 Z M 82.179688 226.121094 L 26.742188 219.949219 L 26.332031 221.59375 L 62.535156 233.835938 L 63.253906 233.835938 L 82.28125 227.871094 L 82.078125 226.121094 Z M 90.304688 221.902344 L 107.582031 224.0625 C 113.242188 218.097656 117.457031 213.984375 123.527344 208.429688 L 122.703125 206.785156 L 103.777344 209.5625 L 103.367188 209.664062 L 93.699219 214.910156 L 93.183594 215.425781 L 90.304688 221.800781 Z M 62.738281 257.59375 L 85.265625 250.910156 L 85.777344 250.601562 L 103.46875 233.21875 L 102.542969 231.675781 L 73.023438 239.699219 L 72.304688 240.210938 L 61.609375 256.152344 L 62.738281 257.695312 Z M 30.546875 281.558594 L 40.007812 282.792969 C 42.785156 279.808594 44.945312 277.753906 47.929688 274.976562 L 47.105469 273.332031 L 37.851562 274.667969 L 37.4375 274.769531 L 32.605469 277.339844 L 32.089844 277.855469 L 30.445312 281.457031 Z M 49.78125 292.976562 L 20.671875 289.683594 L 20.261719 291.328125 L 39.289062 297.808594 L 40.007812 297.808594 L 49.882812 294.722656 L 49.679688 292.976562 Z M 50.601562 283.203125 L 71.277344 277.339844 L 71.894531 276.929688 L 78.683594 268.289062 L 77.550781 266.953125 L 49.984375 281.660156 Z M 95.242188 292.976562 L 92.566406 294.414062 C 92.464844 294.414062 92.363281 294.519531 92.257812 294.519531 L 70.042969 296.78125 L 69.324219 297.191406 L 44.226562 324.34375 L 45.253906 325.886719 L 87.527344 309.738281 L 87.9375 309.535156 L 117.457031 283.511719 L 116.429688 282.074219 L 96.269531 292.5625 C 96.0625 292.667969 95.859375 292.667969 95.652344 292.667969 C 95.550781 292.871094 95.445312 293.078125 95.242188 293.179688 Z M 95.445312 290.917969 L 129.386719 269.421875 L 128.667969 267.777344 L 101.722656 274.976562 L 101.515625 274.976562 L 83 276.003906 L 70.453125 293.078125 L 94.316406 291.433594 L 94.519531 291.328125 C 94.726562 291.226562 94.933594 291.226562 95.136719 291.328125 C 95.242188 291.125 95.34375 291.019531 95.445312 290.917969 Z M 188.21875 267.570312 L 134.121094 281.148438 L 134.324219 282.792969 L 172.484375 281.660156 L 173.203125 281.457031 L 188.941406 269.214844 L 188.117188 267.570312 Z M 184.105469 225.09375 L 155.203125 221.699219 L 155 221.699219 L 136.792969 215.320312 L 91.230469 258.210938 L 92.054688 259.855469 L 134.738281 249.878906 L 134.941406 249.777344 L 184.414062 226.945312 Z M 158.394531 213.777344 L 185.132812 217.996094 L 185.75 217.996094 L 200.664062 213.160156 L 200.5625 211.308594 L 145.226562 202.15625 L 144.507812 203.800781 L 157.980469 213.46875 L 158.496094 213.675781 Z M 195.316406 255.125 L 196.449219 228.179688 L 145.023438 252.761719 L 145.226562 254.609375 L 170.53125 260.679688 L 171.042969 260.679688 Z M 219.488281 238.875 L 226.171875 215.011719 L 224.628906 214.085938 L 222.984375 215.734375 C 222.882812 215.835938 222.777344 215.835938 222.777344 215.9375 C 222.777344 216.042969 222.675781 216.144531 222.574219 216.144531 L 203.132812 235.789062 L 202.824219 236.507812 L 201.488281 255.742188 L 203.238281 256.460938 L 219.382812 239.390625 L 219.691406 238.875 Z M 256.824219 205.242188 L 237.484375 220.054688 L 237.074219 220.566406 L 225.554688 248.234375 C 225.453125 248.335938 225.453125 248.441406 225.351562 248.542969 L 190.277344 277.136719 L 191.203125 278.679688 L 228.742188 263.148438 L 229.15625 262.839844 L 260.628906 228.589844 Z M 260.320312 180.96875 L 254.664062 157.003906 L 252.8125 156.902344 L 232.136719 213.160156 L 233.578125 214.292969 L 255.28125 199.070312 L 255.691406 198.453125 L 260.320312 181.484375 L 260.320312 180.867188 Z M 307.324219 152.582031 L 375.308594 127.589844 L 374.898438 125.941406 L 301.976562 140.035156 Z M 313.496094 157.003906 L 277.804688 180.660156 L 276.671875 217.894531 L 278.421875 218.304688 L 291.691406 185.597656 C 291.691406 185.496094 291.792969 185.390625 291.792969 185.390625 L 314.625 158.445312 L 313.496094 157.105469 Z M 275.027344 150.628906 L 270.808594 157.519531 C 270.707031 157.722656 270.605469 157.828125 270.398438 157.828125 L 266.285156 159.371094 C 265.976562 159.472656 265.566406 159.472656 265.359375 159.164062 C 265.050781 158.855469 265.050781 158.339844 265.359375 157.929688 C 265.769531 157.519531 266.183594 156.902344 266.492188 156.285156 C 266.695312 155.667969 266.902344 155.050781 266.902344 154.328125 C 266.902344 153.609375 266.800781 152.992188 266.492188 152.375 C 266.285156 151.757812 265.875 151.246094 265.359375 150.730469 C 264.949219 150.320312 264.332031 149.90625 263.714844 149.597656 C 263.097656 149.394531 262.480469 149.1875 261.757812 149.1875 C 261.039062 149.1875 260.421875 149.289062 259.804688 149.597656 C 259.1875 149.804688 258.675781 150.214844 258.160156 150.730469 C 257.75 151.140625 257.335938 151.757812 257.027344 152.375 C 256.824219 152.992188 256.617188 153.609375 256.617188 154.328125 C 256.617188 155.050781 256.71875 155.667969 257.027344 156.285156 C 257.234375 156.902344 257.644531 157.414062 258.160156 157.929688 C 258.570312 158.339844 259.085938 158.753906 259.597656 158.957031 C 260.113281 159.164062 260.730469 159.371094 261.347656 159.371094 C 261.65625 159.371094 261.964844 159.574219 262.066406 159.882812 C 262.273438 160.296875 261.964844 160.808594 261.554688 161.015625 L 260.730469 161.324219 L 265.976562 179.015625 C 274.617188 171.09375 282.742188 163.074219 291.175781 154.84375 L 294.261719 151.757812 L 293.539062 150.011719 L 274.925781 150.421875 Z M 241.085938 131.804688 L 268.136719 139.417969 L 268.652344 139.417969 L 295.289062 134.890625 L 295.390625 133.039062 L 262.582031 125.015625 L 262.066406 125.015625 L 241.292969 129.953125 L 241.292969 131.804688 Z M 213.417969 166.773438 L 252.296875 142.914062 L 233.371094 137.152344 L 220 148.878906 L 219.691406 149.289062 L 211.980469 165.4375 L 213.316406 166.671875 Z M 216.8125 177.058594 C 216.503906 177.265625 216.09375 177.265625 215.785156 177.058594 L 186.675781 154.945312 L 185.441406 156.179688 L 209.820312 185.496094 C 209.820312 185.597656 209.921875 185.597656 209.921875 185.699219 L 222.058594 213.675781 L 247.875 157.722656 L 246.433594 156.488281 L 216.710938 176.957031 Z M 122.292969 87.785156 C 149.648438 112.058594 175.980469 135.300781 206.011719 157.414062 L 207.351562 156.179688 L 196.035156 139.210938 L 195.726562 138.902344 L 102.234375 67.933594 L 101.207031 69.167969 C 108.199219 75.339844 115.296875 81.613281 122.292969 87.785156 Z M 205.292969 203.90625 L 120.132812 164.203125 L 118.898438 165.539062 L 136.382812 193.414062 L 204.777344 205.449219 L 205.292969 203.800781 Z M 121.261719 132.320312 L 86.292969 116.171875 L 85.160156 117.613281 L 111.285156 152.992188 L 111.800781 153.40625 L 204.058594 194.855469 L 204.882812 193.414062 L 121.46875 132.523438 L 121.261719 132.421875 Z M 121.261719 132.320312 " clip-rule="evenodd"/></clipPath><linearGradient x1="38.578302" gradientTransform="matrix(10.285245, 0, 0, 10.285245, 0.0000045, 49.112029)" y1="4.17441" x2="-1.274775" gradientUnits="userSpaceOnUse" y2="24.397879" id="a4dccf6cf3"><stop stop-opacity="1" stop-color="rgb(54.899597%, 32.199097%, 100%)" offset="0"/><stop stop-opacity="1" stop-color="rgb(54.899597%, 32.199097%, 100%)" offset="0.125"/><stop stop-opacity="1" stop-color="rgb(54.899597%, 32.199097%, 100%)" offset="0.1875"/><stop stop-opacity="1" stop-color="rgb(54.899597%, 32.199097%, 100%)" offset="0.21875"/><stop stop-opacity="1" stop-color="rgb(54.899597%, 32.199097%, 100%)" offset="0.234375"/><stop stop-opacity="1" stop-color="rgb(54.829407%, 32.194519%, 99.957275%)" offset="0.242187"/><stop stop-opacity="1" stop-color="rgb(54.414368%, 32.170105%, 99.714661%)" offset="0.246094"/><stop stop-opacity="1" stop-color="rgb(54.069519%, 32.150269%, 99.513245%)" offset="0.25"/><stop stop-opacity="1" stop-color="rgb(53.72467%, 32.130432%, 99.310303%)" offset="0.253906"/><stop stop-opacity="1" stop-color="rgb(53.381348%, 32.110596%, 99.108887%)" offset="0.257812"/><stop stop-opacity="1" stop-color="rgb(53.036499%, 32.090759%, 98.907471%)" offset="0.261719"/><stop stop-opacity="1" stop-color="rgb(52.693176%, 32.070923%, 98.706055%)" offset="0.265625"/><stop stop-opacity="1" stop-color="rgb(52.348328%, 32.051086%, 98.503113%)" offset="0.269531"/><stop stop-opacity="1" stop-color="rgb(52.005005%, 32.03125%, 98.301697%)" offset="0.273438"/><stop stop-opacity="1" stop-color="rgb(51.660156%, 32.009888%, 98.098755%)" offset="0.277344"/><stop stop-opacity="1" stop-color="rgb(51.316833%, 31.990051%, 97.897339%)" offset="0.28125"/><stop stop-opacity="1" stop-color="rgb(50.971985%, 31.970215%, 97.695923%)" offset="0.285156"/><stop stop-opacity="1" stop-color="rgb(50.628662%, 31.950378%, 97.494507%)" offset="0.289062"/><stop stop-opacity="1" stop-color="rgb(50.283813%, 31.930542%, 97.291565%)" offset="0.292969"/><stop stop-opacity="1" stop-color="rgb(49.938965%, 31.910706%, 97.090149%)" offset="0.296875"/><stop stop-opacity="1" stop-color="rgb(49.594116%, 31.889343%, 96.888733%)" offset="0.300781"/><stop stop-opacity="1" stop-color="rgb(49.250793%, 31.869507%, 96.687317%)" offset="0.304688"/><stop stop-opacity="1" stop-color="rgb(48.905945%, 31.84967%, 96.484375%)" offset="0.308594"/><stop stop-opacity="1" stop-color="rgb(48.562622%, 31.829834%, 96.282959%)" offset="0.3125"/><stop stop-opacity="1" stop-color="rgb(48.217773%, 31.809998%, 96.080017%)" offset="0.316406"/><stop stop-opacity="1" stop-color="rgb(47.874451%, 31.790161%, 95.878601%)" offset="0.320312"/><stop stop-opacity="1" stop-color="rgb(47.529602%, 31.768799%, 95.677185%)" offset="0.324219"/><stop stop-opacity="1" stop-color="rgb(47.186279%, 31.748962%, 95.475769%)" offset="0.328125"/><stop stop-opacity="1" stop-color="rgb(46.841431%, 31.729126%, 95.272827%)" offset="0.332031"/><stop stop-opacity="1" stop-color="rgb(46.498108%, 31.70929%, 95.071411%)" offset="0.335938"/><stop stop-opacity="1" stop-color="rgb(46.153259%, 31.689453%, 94.868469%)" offset="0.339844"/><stop stop-opacity="1" stop-color="rgb(45.809937%, 31.669617%, 94.667053%)" offset="0.34375"/><stop stop-opacity="1" stop-color="rgb(45.465088%, 31.64978%, 94.465637%)" offset="0.347656"/><stop stop-opacity="1" stop-color="rgb(45.120239%, 31.629944%, 94.264221%)" offset="0.351562"/><stop stop-opacity="1" stop-color="rgb(44.775391%, 31.608582%, 94.061279%)" offset="0.355469"/><stop stop-opacity="1" stop-color="rgb(44.432068%, 31.588745%, 93.859863%)" offset="0.359375"/><stop stop-opacity="1" stop-color="rgb(44.087219%, 31.568909%, 93.658447%)" offset="0.363281"/><stop stop-opacity="1" stop-color="rgb(43.743896%, 31.549072%, 93.457031%)" offset="0.367188"/><stop stop-opacity="1" stop-color="rgb(43.399048%, 31.529236%, 93.254089%)" offset="0.371094"/><stop stop-opacity="1" stop-color="rgb(43.055725%, 31.509399%, 93.052673%)" offset="0.375"/><stop stop-opacity="1" stop-color="rgb(42.710876%, 31.488037%, 92.849731%)" offset="0.378906"/><stop stop-opacity="1" stop-color="rgb(42.367554%, 31.468201%, 92.648315%)" offset="0.382813"/><stop stop-opacity="1" stop-color="rgb(42.022705%, 31.448364%, 92.446899%)" offset="0.386719"/><stop stop-opacity="1" stop-color="rgb(41.679382%, 31.428528%, 92.245483%)" offset="0.390625"/><stop stop-opacity="1" stop-color="rgb(41.334534%, 31.408691%, 92.042542%)" offset="0.394531"/><stop stop-opacity="1" stop-color="rgb(40.989685%, 31.388855%, 91.841125%)" offset="0.398438"/><stop stop-opacity="1" stop-color="rgb(40.644836%, 31.367493%, 91.639709%)" offset="0.402344"/><stop stop-opacity="1" stop-color="rgb(40.301514%, 31.347656%, 91.438293%)" offset="0.40625"/><stop stop-opacity="1" stop-color="rgb(39.956665%, 31.32782%, 91.235352%)" offset="0.410156"/><stop stop-opacity="1" stop-color="rgb(39.613342%, 31.307983%, 91.033936%)" offset="0.414063"/><stop stop-opacity="1" stop-color="rgb(39.268494%, 31.288147%, 90.830994%)" offset="0.417969"/><stop stop-opacity="1" stop-color="rgb(38.925171%, 31.268311%, 90.629578%)" offset="0.421875"/><stop stop-opacity="1" stop-color="rgb(38.580322%, 31.248474%, 90.428162%)" offset="0.425781"/><stop stop-opacity="1" stop-color="rgb(38.237%, 31.228638%, 90.226746%)" offset="0.429688"/><stop stop-opacity="1" stop-color="rgb(37.892151%, 31.207275%, 90.023804%)" offset="0.433594"/><stop stop-opacity="1" stop-color="rgb(37.548828%, 31.187439%, 89.822388%)" offset="0.4375"/><stop stop-opacity="1" stop-color="rgb(37.203979%, 31.167603%, 89.619446%)" offset="0.441406"/><stop stop-opacity="1" stop-color="rgb(36.860657%, 31.147766%, 89.41803%)" offset="0.445313"/><stop stop-opacity="1" stop-color="rgb(36.515808%, 31.12793%, 89.216614%)" offset="0.449219"/><stop stop-opacity="1" stop-color="rgb(36.170959%, 31.108093%, 89.015198%)" offset="0.453125"/><stop stop-opacity="1" stop-color="rgb(35.826111%, 31.086731%, 88.812256%)" offset="0.457031"/><stop stop-opacity="1" stop-color="rgb(35.482788%, 31.066895%, 88.61084%)" offset="0.460938"/><stop stop-opacity="1" stop-color="rgb(35.137939%, 31.047058%, 88.409424%)" offset="0.464844"/><stop stop-opacity="1" stop-color="rgb(34.794617%, 31.027222%, 88.208008%)" offset="0.46875"/><stop stop-opacity="1" stop-color="rgb(34.449768%, 31.007385%, 88.005066%)" offset="0.472656"/><stop stop-opacity="1" stop-color="rgb(34.106445%, 30.987549%, 87.80365%)" offset="0.476562"/><stop stop-opacity="1" stop-color="rgb(33.761597%, 30.967712%, 87.600708%)" offset="0.480469"/><stop stop-opacity="1" stop-color="rgb(33.418274%, 30.947876%, 87.399292%)" offset="0.484375"/><stop stop-opacity="1" stop-color="rgb(33.073425%, 30.926514%, 87.197876%)" offset="0.488281"/><stop stop-opacity="1" stop-color="rgb(32.730103%, 30.906677%, 86.99646%)" offset="0.492188"/><stop stop-opacity="1" stop-color="rgb(32.385254%, 30.886841%, 86.793518%)" offset="0.496094"/><stop stop-opacity="1" stop-color="rgb(32.040405%, 30.867004%, 86.592102%)" offset="0.5"/><stop stop-opacity="1" stop-color="rgb(31.695557%, 30.847168%, 86.390686%)" offset="0.503906"/><stop stop-opacity="1" stop-color="rgb(31.352234%, 30.827332%, 86.18927%)" offset="0.507812"/><stop stop-opacity="1" stop-color="rgb(31.007385%, 30.805969%, 85.986328%)" offset="0.511719"/><stop stop-opacity="1" stop-color="rgb(30.664062%, 30.786133%, 85.784912%)" offset="0.515625"/><stop stop-opacity="1" stop-color="rgb(30.319214%, 30.766296%, 85.58197%)" offset="0.519531"/><stop stop-opacity="1" stop-color="rgb(29.975891%, 30.74646%, 85.380554%)" offset="0.523438"/><stop stop-opacity="1" stop-color="rgb(29.631042%, 30.726624%, 85.179138%)" offset="0.527344"/><stop stop-opacity="1" stop-color="rgb(29.28772%, 30.706787%, 84.977722%)" offset="0.53125"/><stop stop-opacity="1" stop-color="rgb(28.942871%, 30.685425%, 84.77478%)" offset="0.535156"/><stop stop-opacity="1" stop-color="rgb(28.599548%, 30.665588%, 84.573364%)" offset="0.539062"/><stop stop-opacity="1" stop-color="rgb(28.2547%, 30.645752%, 84.371948%)" offset="0.542969"/><stop stop-opacity="1" stop-color="rgb(27.909851%, 30.625916%, 84.170532%)" offset="0.546875"/><stop stop-opacity="1" stop-color="rgb(27.565002%, 30.606079%, 83.96759%)" offset="0.550781"/><stop stop-opacity="1" stop-color="rgb(27.22168%, 30.586243%, 83.766174%)" offset="0.554688"/><stop stop-opacity="1" stop-color="rgb(26.876831%, 30.566406%, 83.563232%)" offset="0.558594"/><stop stop-opacity="1" stop-color="rgb(26.533508%, 30.54657%, 83.361816%)" offset="0.5625"/><stop stop-opacity="1" stop-color="rgb(26.18866%, 30.525208%, 83.1604%)" offset="0.566406"/><stop stop-opacity="1" stop-color="rgb(25.845337%, 30.505371%, 82.958984%)" offset="0.570312"/><stop stop-opacity="1" stop-color="rgb(25.500488%, 30.485535%, 82.756042%)" offset="0.574219"/><stop stop-opacity="1" stop-color="rgb(25.157166%, 30.465698%, 82.554626%)" offset="0.578125"/><stop stop-opacity="1" stop-color="rgb(24.812317%, 30.445862%, 82.351685%)" offset="0.582031"/><stop stop-opacity="1" stop-color="rgb(24.468994%, 30.426025%, 82.150269%)" offset="0.585938"/><stop stop-opacity="1" stop-color="rgb(24.124146%, 30.404663%, 81.948853%)" offset="0.589844"/><stop stop-opacity="1" stop-color="rgb(23.780823%, 30.384827%, 81.747437%)" offset="0.59375"/><stop stop-opacity="1" stop-color="rgb(23.435974%, 30.36499%, 81.544495%)" offset="0.597656"/><stop stop-opacity="1" stop-color="rgb(23.091125%, 30.345154%, 81.343079%)" offset="0.601562"/><stop stop-opacity="1" stop-color="rgb(22.746277%, 30.325317%, 81.141663%)" offset="0.605469"/><stop stop-opacity="1" stop-color="rgb(22.402954%, 30.305481%, 80.940247%)" offset="0.609375"/><stop stop-opacity="1" stop-color="rgb(22.058105%, 30.284119%, 80.737305%)" offset="0.613281"/><stop stop-opacity="1" stop-color="rgb(21.714783%, 30.264282%, 80.535889%)" offset="0.617188"/><stop stop-opacity="1" stop-color="rgb(21.369934%, 30.244446%, 80.332947%)" offset="0.621094"/><stop stop-opacity="1" stop-color="rgb(21.026611%, 30.224609%, 80.131531%)" offset="0.625"/><stop stop-opacity="1" stop-color="rgb(20.681763%, 30.204773%, 79.930115%)" offset="0.628906"/><stop stop-opacity="1" stop-color="rgb(20.33844%, 30.184937%, 79.728699%)" offset="0.632812"/><stop stop-opacity="1" stop-color="rgb(19.993591%, 30.1651%, 79.525757%)" offset="0.636719"/><stop stop-opacity="1" stop-color="rgb(19.650269%, 30.145264%, 79.324341%)" offset="0.640625"/><stop stop-opacity="1" stop-color="rgb(19.30542%, 30.123901%, 79.122925%)" offset="0.644531"/><stop stop-opacity="1" stop-color="rgb(18.960571%, 30.104065%, 78.921509%)" offset="0.648438"/><stop stop-opacity="1" stop-color="rgb(18.615723%, 30.084229%, 78.718567%)" offset="0.652344"/><stop stop-opacity="1" stop-color="rgb(18.2724%, 30.064392%, 78.517151%)" offset="0.65625"/><stop stop-opacity="1" stop-color="rgb(17.927551%, 30.044556%, 78.314209%)" offset="0.660156"/><stop stop-opacity="1" stop-color="rgb(17.584229%, 30.024719%, 78.112793%)" offset="0.664062"/><stop stop-opacity="1" stop-color="rgb(17.23938%, 30.003357%, 77.911377%)" offset="0.667969"/><stop stop-opacity="1" stop-color="rgb(16.896057%, 29.983521%, 77.709961%)" offset="0.671875"/><stop stop-opacity="1" stop-color="rgb(16.551208%, 29.963684%, 77.507019%)" offset="0.675781"/><stop stop-opacity="1" stop-color="rgb(16.207886%, 29.943848%, 77.305603%)" offset="0.679687"/><stop stop-opacity="1" stop-color="rgb(15.863037%, 29.924011%, 77.104187%)" offset="0.683594"/><stop stop-opacity="1" stop-color="rgb(15.519714%, 29.904175%, 76.902771%)" offset="0.6875"/><stop stop-opacity="1" stop-color="rgb(15.174866%, 29.882812%, 76.699829%)" offset="0.691406"/><stop stop-opacity="1" stop-color="rgb(14.830017%, 29.862976%, 76.498413%)" offset="0.695312"/><stop stop-opacity="1" stop-color="rgb(14.485168%, 29.84314%, 76.295471%)" offset="0.699219"/><stop stop-opacity="1" stop-color="rgb(14.141846%, 29.823303%, 76.094055%)" offset="0.703125"/><stop stop-opacity="1" stop-color="rgb(13.796997%, 29.803467%, 75.892639%)" offset="0.707031"/><stop stop-opacity="1" stop-color="rgb(13.453674%, 29.78363%, 75.691223%)" offset="0.710938"/><stop stop-opacity="1" stop-color="rgb(13.108826%, 29.763794%, 75.488281%)" offset="0.714844"/><stop stop-opacity="1" stop-color="rgb(12.765503%, 29.743958%, 75.286865%)" offset="0.71875"/><stop stop-opacity="1" stop-color="rgb(12.420654%, 29.722595%, 75.083923%)" offset="0.722656"/><stop stop-opacity="1" stop-color="rgb(12.077332%, 29.702759%, 74.882507%)" offset="0.726562"/><stop stop-opacity="1" stop-color="rgb(11.732483%, 29.682922%, 74.681091%)" offset="0.730469"/><stop stop-opacity="1" stop-color="rgb(11.38916%, 29.663086%, 74.479675%)" offset="0.734375"/><stop stop-opacity="1" stop-color="rgb(11.044312%, 29.64325%, 74.276733%)" offset="0.738281"/><stop stop-opacity="1" stop-color="rgb(10.700989%, 29.623413%, 74.075317%)" offset="0.742188"/><stop stop-opacity="1" stop-color="rgb(10.35614%, 29.602051%, 73.873901%)" offset="0.746094"/><stop stop-opacity="1" stop-color="rgb(10.011292%, 29.582214%, 73.672485%)" offset="0.75"/><stop stop-opacity="1" stop-color="rgb(9.666443%, 29.562378%, 73.469543%)" offset="0.753906"/><stop stop-opacity="1" stop-color="rgb(9.32312%, 29.542542%, 73.268127%)" offset="0.757812"/><stop stop-opacity="1" stop-color="rgb(8.978271%, 29.522705%, 73.065186%)" offset="0.761719"/><stop stop-opacity="1" stop-color="rgb(8.634949%, 29.502869%, 72.86377%)" offset="0.765625"/><stop stop-opacity="1" stop-color="rgb(8.2901%, 29.483032%, 72.662354%)" offset="0.769531"/><stop stop-opacity="1" stop-color="rgb(7.946777%, 29.463196%, 72.460938%)" offset="0.773438"/><stop stop-opacity="1" stop-color="rgb(7.601929%, 29.441833%, 72.257996%)" offset="0.777344"/><stop stop-opacity="1" stop-color="rgb(7.258606%, 29.421997%, 72.05658%)" offset="0.78125"/><stop stop-opacity="1" stop-color="rgb(6.913757%, 29.402161%, 71.855164%)" offset="0.785156"/><stop stop-opacity="1" stop-color="rgb(6.570435%, 29.382324%, 71.653748%)" offset="0.789062"/><stop stop-opacity="1" stop-color="rgb(6.225586%, 29.362488%, 71.450806%)" offset="0.792969"/><stop stop-opacity="1" stop-color="rgb(5.880737%, 29.342651%, 71.24939%)" offset="0.796875"/><stop stop-opacity="1" stop-color="rgb(5.535889%, 29.321289%, 71.046448%)" offset="0.800781"/><stop stop-opacity="1" stop-color="rgb(5.192566%, 29.301453%, 70.845032%)" offset="0.804688"/><stop stop-opacity="1" stop-color="rgb(4.847717%, 29.281616%, 70.643616%)" offset="0.808594"/><stop stop-opacity="1" stop-color="rgb(4.504395%, 29.26178%, 70.4422%)" offset="0.8125"/><stop stop-opacity="1" stop-color="rgb(4.159546%, 29.241943%, 70.239258%)" offset="0.816406"/><stop stop-opacity="1" stop-color="rgb(3.816223%, 29.222107%, 70.037842%)" offset="0.820313"/><stop stop-opacity="1" stop-color="rgb(3.471375%, 29.200745%, 69.8349%)" offset="0.824219"/><stop stop-opacity="1" stop-color="rgb(3.128052%, 29.180908%, 69.633484%)" offset="0.828125"/><stop stop-opacity="1" stop-color="rgb(2.783203%, 29.161072%, 69.432068%)" offset="0.832031"/><stop stop-opacity="1" stop-color="rgb(2.43988%, 29.141235%, 69.230652%)" offset="0.835938"/><stop stop-opacity="1" stop-color="rgb(2.095032%, 29.121399%, 69.02771%)" offset="0.839844"/><stop stop-opacity="1" stop-color="rgb(1.751709%, 29.101562%, 68.826294%)" offset="0.84375"/><stop stop-opacity="1" stop-color="rgb(1.40686%, 29.081726%, 68.624878%)" offset="0.847656"/><stop stop-opacity="1" stop-color="rgb(1.062012%, 29.06189%, 68.423462%)" offset="0.851562"/><stop stop-opacity="1" stop-color="rgb(0.717163%, 29.040527%, 68.22052%)" offset="0.855469"/><stop stop-opacity="1" stop-color="rgb(0.37384%, 29.020691%, 68.019104%)" offset="0.859375"/><stop stop-opacity="1" stop-color="rgb(0.186157%, 29.01001%, 67.909241%)" offset="0.875"/><stop stop-opacity="1" stop-color="rgb(0%, 28.999329%, 67.799377%)" offset="1"/></linearGradient></defs><g clip-path="url(#2101a2b6c5)"><g clip-path="url(#ae7012d185)"><path fill="url(#a4dccf6cf3)" d="M 0 49.113281 L 0 325.886719 L 375 325.886719 L 375 49.113281 Z M 0 49.113281 " fill-rule="nonzero"/></g></g></svg>