<svg xmlns="http://www.w3.org/2000/svg" xmlns:xlink="http://www.w3.org/1999/xlink" viewBox="0,0,256,256" width="64px" height="64px" fill-rule="nonzero"><defs><linearGradient x1="29" y1="31.5" x2="29" y2="38.5" gradientUnits="userSpaceOnUse" id="color-1"><stop offset="0" stop-color="#004aad"></stop><stop offset="1" stop-color="#8c52ff"></stop></linearGradient><linearGradient x1="29" y1="7.167" x2="29" y2="58.176" gradientUnits="userSpaceOnUse" id="color-2"><stop offset="0" stop-color="#004aad"></stop><stop offset="1" stop-color="#8c52ff"></stop></linearGradient><linearGradient x1="46" y1="7.167" x2="46" y2="58.176" gradientUnits="userSpaceOnUse" id="color-3"><stop offset="0" stop-color="#004aad"></stop><stop offset="1" stop-color="#8c52ff"></stop></linearGradient><linearGradient x1="33" y1="7.167" x2="33" y2="58.176" gradientUnits="userSpaceOnUse" id="color-4"><stop offset="0" stop-color="#004aad"></stop><stop offset="1" stop-color="#8c52ff"></stop></linearGradient></defs><g fill="none" fill-rule="nonzero" stroke="none" stroke-width="1" stroke-linecap="butt" stroke-linejoin="miter" stroke-miterlimit="10" stroke-dasharray="" stroke-dashoffset="0" font-family="none" font-weight="none" font-size="none" text-anchor="none" style="mix-blend-mode: normal"><g transform="scale(4,4)"><path d="M32,37c0,0.552 -0.448,1 -1,1h-4c-0.552,0 -1,-0.448 -1,-1v-4c0,-0.552 0.448,-1 1,-1h4c0.552,0 1,0.448 1,1z" fill="url(#color-1)"></path><path d="M48,34h-4c-1.103,0 -2,0.897 -2,2v12h-26v-26h12c1.103,0 2,-0.897 2,-2v-4c0,-1.103 -0.897,-2 -2,-2h-15c-2.757,0 -5,2.243 -5,5v32c0,2.757 2.243,5 5,5h32c2.757,0 5,-2.243 5,-5v-15c0,-1.103 -0.897,-2 -2,-2zM48,51c0,1.654 -1.346,3 -3,3h-32c-1.654,0 -3,-1.346 -3,-3v-32c0,-1.654 1.346,-3 3,-3h15v4h-12c-1.103,0 -2,0.897 -2,2v26c0,1.103 0.897,2 2,2h26c1.103,0 2,-0.897 2,-2v-12h4z" fill="url(#color-2)"></path><path d="M51,8h-13c-1.103,0 -2,0.897 -2,2v4c0,1.103 0.897,2 2,2h10v10c0,1.103 0.897,2 2,2h4c1.103,0 2,-0.897 2,-2v-13c0,-2.757 -2.243,-5 -5,-5zM54,26h-4v-10c0,-1.103 -0.897,-2 -2,-2h-10v-4h13c1.654,0 3,1.346 3,3z" fill="url(#color-3)"></path><path d="M34,28h-10c-1.103,0 -2,0.897 -2,2v10c0,1.103 0.897,2 2,2h10c1.103,0 2,-0.897 2,-2v-10c0,-0.178 -0.031,-0.347 -0.075,-0.511l6.075,-6.075v6.586h2v-8c0,-1.103 -0.897,-2 -2,-2h-8v2h6.586l-6.075,6.074c-0.164,-0.043 -0.333,-0.074 -0.511,-0.074zM34,40h-10v-10h10z" fill="url(#color-4)"></path></g></g></svg>