<svg id="visual" viewBox="0 0 900 450" width="900" height="450" xmlns="http://www.w3.org/2000/svg" xmlns:xlink="http://www.w3.org/1999/xlink" version="1.1"><path d="M0 291L21.5 288.8C43 286.7 86 282.3 128.8 282.8C171.7 283.3 214.3 288.7 257.2 289.3C300 290 343 286 385.8 282.8C428.7 279.7 471.3 277.3 514.2 285C557 292.7 600 310.3 642.8 318.2C685.7 326 728.3 324 771.2 322.5C814 321 857 320 878.5 319.5L900 319L900 451L878.5 451C857 451 814 451 771.2 451C728.3 451 685.7 451 642.8 451C600 451 557 451 514.2 451C471.3 451 428.7 451 385.8 451C343 451 300 451 257.2 451C214.3 451 171.7 451 128.8 451C86 451 43 451 21.5 451L0 451Z" fill="#8462c9"></path><path d="M0 296L21.5 303C43 310 86 324 128.8 328C171.7 332 214.3 326 257.2 326.2C300 326.3 343 332.7 385.8 329.8C428.7 327 471.3 315 514.2 313.7C557 312.3 600 321.7 642.8 323C685.7 324.3 728.3 317.7 771.2 312C814 306.3 857 301.7 878.5 299.3L900 297L900 451L878.5 451C857 451 814 451 771.2 451C728.3 451 685.7 451 642.8 451C600 451 557 451 514.2 451C471.3 451 428.7 451 385.8 451C343 451 300 451 257.2 451C214.3 451 171.7 451 128.8 451C86 451 43 451 21.5 451L0 451Z" fill="#6e5cc3"></path><path d="M0 348L21.5 346C43 344 86 340 128.8 344.3C171.7 348.7 214.3 361.3 257.2 362.7C300 364 343 354 385.8 353.8C428.7 353.7 471.3 363.3 514.2 362.5C557 361.7 600 350.3 642.8 344.2C685.7 338 728.3 337 771.2 343C814 349 857 362 878.5 368.5L900 375L900 451L878.5 451C857 451 814 451 771.2 451C728.3 451 685.7 451 642.8 451C600 451 557 451 514.2 451C471.3 451 428.7 451 385.8 451C343 451 300 451 257.2 451C214.3 451 171.7 451 128.8 451C86 451 43 451 21.5 451L0 451Z" fill="#5656bc"></path><path d="M0 364L21.5 368.7C43 373.3 86 382.7 128.8 382.3C171.7 382 214.3 372 257.2 367.8C300 363.7 343 365.3 385.8 368C428.7 370.7 471.3 374.3 514.2 375.8C557 377.3 600 376.7 642.8 381.2C685.7 385.7 728.3 395.3 771.2 395C814 394.7 857 384.3 878.5 379.2L900 374L900 451L878.5 451C857 451 814 451 771.2 451C728.3 451 685.7 451 642.8 451C600 451 557 451 514.2 451C471.3 451 428.7 451 385.8 451C343 451 300 451 257.2 451C214.3 451 171.7 451 128.8 451C86 451 43 451 21.5 451L0 451Z" fill="#3950b5"></path><path d="M0 414L21.5 413.7C43 413.3 86 412.7 128.8 411.8C171.7 411 214.3 410 257.2 411C300 412 343 415 385.8 416.8C428.7 418.7 471.3 419.3 514.2 416.8C557 414.3 600 408.7 642.8 408.7C685.7 408.7 728.3 414.3 771.2 414.2C814 414 857 408 878.5 405L900 402L900 451L878.5 451C857 451 814 451 771.2 451C728.3 451 685.7 451 642.8 451C600 451 557 451 514.2 451C471.3 451 428.7 451 385.8 451C343 451 300 451 257.2 451C214.3 451 171.7 451 128.8 451C86 451 43 451 21.5 451L0 451Z" fill="#004aad"></path></svg>