<svg id="visual" viewBox="0 0 900 200" width="900" height="200" xmlns="http://www.w3.org/2000/svg" xmlns:xlink="http://www.w3.org/1999/xlink" version="1.1"><path d="M0 82L21.5 79.8C43 77.7 86 73.3 128.8 67.8C171.7 62.3 214.3 55.7 257.2 55.7C300 55.7 343 62.3 385.8 63.5C428.7 64.7 471.3 60.3 514.2 62.2C557 64 600 72 642.8 75.5C685.7 79 728.3 78 771.2 77.2C814 76.3 857 75.7 878.5 75.3L900 75L900 0L878.5 0C857 0 814 0 771.2 0C728.3 0 685.7 0 642.8 0C600 0 557 0 514.2 0C471.3 0 428.7 0 385.8 0C343 0 300 0 257.2 0C214.3 0 171.7 0 128.8 0C86 0 43 0 21.5 0L0 0Z" fill="#8c52ff"></path><path d="M0 64L21.5 60.7C43 57.3 86 50.7 128.8 48.8C171.7 47 214.3 50 257.2 52.2C300 54.3 343 55.7 385.8 56.7C428.7 57.7 471.3 58.3 514.2 59.2C557 60 600 61 642.8 61.3C685.7 61.7 728.3 61.3 771.2 61.7C814 62 857 63 878.5 63.5L900 64L900 0L878.5 0C857 0 814 0 771.2 0C728.3 0 685.7 0 642.8 0C600 0 557 0 514.2 0C471.3 0 428.7 0 385.8 0C343 0 300 0 257.2 0C214.3 0 171.7 0 128.8 0C86 0 43 0 21.5 0L0 0Z" fill="#6b53ed"></path><path d="M0 36L21.5 35.8C43 35.7 86 35.3 128.8 34.2C171.7 33 214.3 31 257.2 33C300 35 343 41 385.8 42.7C428.7 44.3 471.3 41.7 514.2 40C557 38.3 600 37.7 642.8 36.7C685.7 35.7 728.3 34.3 771.2 36.2C814 38 857 43 878.5 45.5L900 48L900 0L878.5 0C857 0 814 0 771.2 0C728.3 0 685.7 0 642.8 0C600 0 557 0 514.2 0C471.3 0 428.7 0 385.8 0C343 0 300 0 257.2 0C214.3 0 171.7 0 128.8 0C86 0 43 0 21.5 0L0 0Z" fill="#4b52d9"></path><path d="M0 19L21.5 19.3C43 19.7 86 20.3 128.8 21.8C171.7 23.3 214.3 25.7 257.2 26C300 26.3 343 24.7 385.8 24.3C428.7 24 471.3 25 514.2 26C557 27 600 28 642.8 29.5C685.7 31 728.3 33 771.2 31.5C814 30 857 25 878.5 22.5L900 20L900 0L878.5 0C857 0 814 0 771.2 0C728.3 0 685.7 0 642.8 0C600 0 557 0 514.2 0C471.3 0 428.7 0 385.8 0C343 0 300 0 257.2 0C214.3 0 171.7 0 128.8 0C86 0 43 0 21.5 0L0 0Z" fill="#2b4fc4"></path><path d="M0 12L21.5 12C43 12 86 12 128.8 13C171.7 14 214.3 16 257.2 17.7C300 19.3 343 20.7 385.8 21C428.7 21.3 471.3 20.7 514.2 20.8C557 21 600 22 642.8 20.8C685.7 19.7 728.3 16.3 771.2 15.2C814 14 857 15 878.5 15.5L900 16L900 0L878.5 0C857 0 814 0 771.2 0C728.3 0 685.7 0 642.8 0C600 0 557 0 514.2 0C471.3 0 428.7 0 385.8 0C343 0 300 0 257.2 0C214.3 0 171.7 0 128.8 0C86 0 43 0 21.5 0L0 0Z" fill="#004aad"></path></svg>