<svg id="visual" viewBox="0 0 900 450" width="900" height="450" xmlns="http://www.w3.org/2000/svg" xmlns:xlink="http://www.w3.org/1999/xlink" version="1.1"><path d="M0 157L21.5 159.2C43 161.3 86 165.7 128.8 165.2C171.7 164.7 214.3 159.3 257.2 158.7C300 158 343 162 385.8 165.2C428.7 168.3 471.3 170.7 514.2 163C557 155.3 600 137.7 642.8 129.8C685.7 122 728.3 124 771.2 125.5C814 127 857 128 878.5 128.5L900 129L900 0L878.5 0C857 0 814 0 771.2 0C728.3 0 685.7 0 642.8 0C600 0 557 0 514.2 0C471.3 0 428.7 0 385.8 0C343 0 300 0 257.2 0C214.3 0 171.7 0 128.8 0C86 0 43 0 21.5 0L0 0Z" fill="#8462c9"></path><path d="M0 152L21.5 145C43 138 86 124 128.8 120C171.7 116 214.3 122 257.2 121.8C300 121.7 343 115.3 385.8 118.2C428.7 121 471.3 133 514.2 134.3C557 135.7 600 126.3 642.8 125C685.7 123.7 728.3 130.3 771.2 136C814 141.7 857 146.3 878.5 148.7L900 151L900 0L878.5 0C857 0 814 0 771.2 0C728.3 0 685.7 0 642.8 0C600 0 557 0 514.2 0C471.3 0 428.7 0 385.8 0C343 0 300 0 257.2 0C214.3 0 171.7 0 128.8 0C86 0 43 0 21.5 0L0 0Z" fill="#6e5cc3"></path><path d="M0 100L21.5 102C43 104 86 108 128.8 103.7C171.7 99.3 214.3 86.7 257.2 85.3C300 84 343 94 385.8 94.2C428.7 94.3 471.3 84.7 514.2 85.5C557 86.3 600 97.7 642.8 103.8C685.7 110 728.3 111 771.2 105C814 99 857 86 878.5 79.5L900 73L900 0L878.5 0C857 0 814 0 771.2 0C728.3 0 685.7 0 642.8 0C600 0 557 0 514.2 0C471.3 0 428.7 0 385.8 0C343 0 300 0 257.2 0C214.3 0 171.7 0 128.8 0C86 0 43 0 21.5 0L0 0Z" fill="#5656bc"></path><path d="M0 84L21.5 79.3C43 74.7 86 65.3 128.8 65.7C171.7 66 214.3 76 257.2 80.2C300 84.3 343 82.7 385.8 80C428.7 77.3 471.3 73.7 514.2 72.2C557 70.7 600 71.3 642.8 66.8C685.7 62.3 728.3 52.7 771.2 53C814 53.3 857 63.7 878.5 68.8L900 74L900 0L878.5 0C857 0 814 0 771.2 0C728.3 0 685.7 0 642.8 0C600 0 557 0 514.2 0C471.3 0 428.7 0 385.8 0C343 0 300 0 257.2 0C214.3 0 171.7 0 128.8 0C86 0 43 0 21.5 0L0 0Z" fill="#3950b5"></path><path d="M0 34L21.5 34.3C43 34.7 86 35.3 128.8 36.2C171.7 37 214.3 38 257.2 37C300 36 343 33 385.8 31.2C428.7 29.3 471.3 28.7 514.2 31.2C557 33.7 600 39.3 642.8 39.3C685.7 39.3 728.3 33.7 771.2 33.8C814 34 857 40 878.5 43L900 46L900 0L878.5 0C857 0 814 0 771.2 0C728.3 0 685.7 0 642.8 0C600 0 557 0 514.2 0C471.3 0 428.7 0 385.8 0C343 0 300 0 257.2 0C214.3 0 171.7 0 128.8 0C86 0 43 0 21.5 0L0 0Z" fill="#004aad"></path></svg>