<svg id="visual" viewBox="0 0 900 200" width="900" height="200" xmlns="http://www.w3.org/2000/svg" xmlns:xlink="http://www.w3.org/1999/xlink" version="1.1"><path d="M0 116L21.5 118.2C43 120.3 86 124.7 128.8 130.2C171.7 135.7 214.3 142.3 257.2 142.3C300 142.3 343 135.7 385.8 134.5C428.7 133.3 471.3 137.7 514.2 135.8C557 134 600 126 642.8 122.5C685.7 119 728.3 120 771.2 120.8C814 121.7 857 122.3 878.5 122.7L900 123L900 201L878.5 201C857 201 814 201 771.2 201C728.3 201 685.7 201 642.8 201C600 201 557 201 514.2 201C471.3 201 428.7 201 385.8 201C343 201 300 201 257.2 201C214.3 201 171.7 201 128.8 201C86 201 43 201 21.5 201L0 201Z" fill="#8c52ff"></path><path d="M0 134L21.5 137.3C43 140.7 86 147.3 128.8 149.2C171.7 151 214.3 148 257.2 145.8C300 143.7 343 142.3 385.8 141.3C428.7 140.3 471.3 139.7 514.2 138.8C557 138 600 137 642.8 136.7C685.7 136.3 728.3 136.7 771.2 136.3C814 136 857 135 878.5 134.5L900 134L900 201L878.5 201C857 201 814 201 771.2 201C728.3 201 685.7 201 642.8 201C600 201 557 201 514.2 201C471.3 201 428.7 201 385.8 201C343 201 300 201 257.2 201C214.3 201 171.7 201 128.8 201C86 201 43 201 21.5 201L0 201Z" fill="#6b53ed"></path><path d="M0 162L21.5 162.2C43 162.3 86 162.7 128.8 163.8C171.7 165 214.3 167 257.2 165C300 163 343 157 385.8 155.3C428.7 153.7 471.3 156.3 514.2 158C557 159.7 600 160.3 642.8 161.3C685.7 162.3 728.3 163.7 771.2 161.8C814 160 857 155 878.5 152.5L900 150L900 201L878.5 201C857 201 814 201 771.2 201C728.3 201 685.7 201 642.8 201C600 201 557 201 514.2 201C471.3 201 428.7 201 385.8 201C343 201 300 201 257.2 201C214.3 201 171.7 201 128.8 201C86 201 43 201 21.5 201L0 201Z" fill="#4b52d9"></path><path d="M0 179L21.5 178.7C43 178.3 86 177.7 128.8 176.2C171.7 174.7 214.3 172.3 257.2 172C300 171.7 343 173.3 385.8 173.7C428.7 174 471.3 173 514.2 172C557 171 600 170 642.8 168.5C685.7 167 728.3 165 771.2 166.5C814 168 857 173 878.5 175.5L900 178L900 201L878.5 201C857 201 814 201 771.2 201C728.3 201 685.7 201 642.8 201C600 201 557 201 514.2 201C471.3 201 428.7 201 385.8 201C343 201 300 201 257.2 201C214.3 201 171.7 201 128.8 201C86 201 43 201 21.5 201L0 201Z" fill="#2b4fc4"></path><path d="M0 186L21.5 186C43 186 86 186 128.8 185C171.7 184 214.3 182 257.2 180.3C300 178.7 343 177.3 385.8 177C428.7 176.7 471.3 177.3 514.2 177.2C557 177 600 176 642.8 177.2C685.7 178.3 728.3 181.7 771.2 182.8C814 184 857 183 878.5 182.5L900 182L900 201L878.5 201C857 201 814 201 771.2 201C728.3 201 685.7 201 642.8 201C600 201 557 201 514.2 201C471.3 201 428.7 201 385.8 201C343 201 300 201 257.2 201C214.3 201 171.7 201 128.8 201C86 201 43 201 21.5 201L0 201Z" fill="#004aad"></path></svg>