<svg xmlns="http://www.w3.org/2000/svg" xmlns:xlink="http://www.w3.org/1999/xlink" viewBox="0,0,256,256" width="64px" height="64px" fill-rule="nonzero"><defs><linearGradient x1="21" y1="10.333" x2="21" y2="53.297" gradientUnits="userSpaceOnUse" id="color-1"><stop offset="0" stop-color="#004aad"></stop><stop offset="1" stop-color="#8c52ff"></stop></linearGradient><linearGradient x1="46" y1="24" x2="46" y2="34" gradientUnits="userSpaceOnUse" id="color-2"><stop offset="0" stop-color="#004aad"></stop><stop offset="1" stop-color="#8c52ff"></stop></linearGradient><linearGradient x1="38" y1="47.625" x2="38" y2="54.136" gradientUnits="userSpaceOnUse" id="color-3"><stop offset="0" stop-color="#004aad"></stop><stop offset="1" stop-color="#8c52ff"></stop></linearGradient><linearGradient x1="48" y1="15.333" x2="48" y2="58.297" gradientUnits="userSpaceOnUse" id="color-4"><stop offset="0" stop-color="#004aad"></stop><stop offset="1" stop-color="#8c52ff"></stop></linearGradient><linearGradient x1="48" y1="15.333" x2="48" y2="58.297" gradientUnits="userSpaceOnUse" id="color-5"><stop offset="0" stop-color="#004aad"></stop><stop offset="1" stop-color="#8c52ff"></stop></linearGradient><linearGradient x1="35" y1="15.333" x2="35" y2="58.297" gradientUnits="userSpaceOnUse" id="color-6"><stop offset="0" stop-color="#004aad"></stop><stop offset="1" stop-color="#8c52ff"></stop></linearGradient></defs><g fill="none" fill-rule="nonzero" stroke="none" stroke-width="1" stroke-linecap="butt" stroke-linejoin="miter" stroke-miterlimit="10" stroke-dasharray="" stroke-dashoffset="0" font-family="none" font-weight="none" font-size="none" text-anchor="none" style="mix-blend-mode: normal"><g transform="scale(4,4)"><path d="M19,25h4v2h-4z" fill="url(#color-1)"></path><path d="M53,31c0,1.654 1.346,3 3,3c1.654,0 3,-1.346 3,-3v-4c0,-1.654 -1.346,-3 -3,-3h-19c-2.206,0 -4,1.794 -4,4c0,2.206 1.794,4 4,4c2.206,0 4,-1.794 4,-4c0,-0.732 -0.212,-1.409 -0.556,-2h12.556zM56,26c0.552,0 1,0.448 1,1v4c0,0.552 -0.448,1 -1,1c-0.552,0 -1,-0.448 -1,-1v-5zM39,28c0,1.103 -0.897,2 -2,2c-1.103,0 -2,-0.897 -2,-2c0,-1.103 0.897,-2 2,-2c1.103,0 2,0.897 2,2z" fill="url(#color-2)"></path><path d="M37,48h2v6h-2z" fill="url(#color-3)"></path><path d="M45,34h6v2h-6z" fill="url(#color-4)"></path><path d="M45,30h6v2h-6z" fill="url(#color-5)"></path><path d="M53,36v2h-26v-16c0,-1.538 -0.586,-2.937 -1.541,-4h24.541c1.657,0 3,1.343 3,3v1h2v-1c0,-2.761 -2.239,-5 -5,-5h-29c-3.314,0 -6,2.686 -6,6v19c0,1.657 1.343,3 3,3h8h5v2c0,1.103 0.897,2 2,2v8h-10v2h24v-2h-4v-8c1.103,0 2,-0.897 2,-2v-2h7c1.657,0 3,-1.343 3,-3v-5zM25,42h-7c-0.552,0 -1,-0.448 -1,-1v-18.823c0,-2.088 1.523,-3.956 3.601,-4.158c2.385,-0.232 4.399,1.643 4.399,3.981zM41,56h-6v-8h6zM43,46h-10v-2h10zM53,41c0,0.552 -0.448,1 -1,1h-25v-2h26z" fill="url(#color-6)"></path></g></g></svg>