<svg xmlns="http://www.w3.org/2000/svg" xmlns:xlink="http://www.w3.org/1999/xlink" viewBox="0,0,256,256" width="64px" height="64px" fill-rule="nonzero"><defs><linearGradient x1="32" y1="6.234" x2="32" y2="56.951" gradientUnits="userSpaceOnUse" id="color-1"><stop offset="0" stop-color="#004aad"></stop><stop offset="1" stop-color="#8c52ff"></stop></linearGradient><linearGradient x1="32" y1="6.234" x2="32" y2="56.951" gradientUnits="userSpaceOnUse" id="color-2"><stop offset="0" stop-color="#004aad"></stop><stop offset="1" stop-color="#8c52ff"></stop></linearGradient><linearGradient x1="32" y1="21.5" x2="32" y2="26.336" gradientUnits="userSpaceOnUse" id="color-3"><stop offset="0" stop-color="#004aad"></stop><stop offset="1" stop-color="#8c52ff"></stop></linearGradient><linearGradient x1="32" y1="29.333" x2="32" y2="34.5" gradientUnits="userSpaceOnUse" id="color-4"><stop offset="0" stop-color="#004aad"></stop><stop offset="1" stop-color="#8c52ff"></stop></linearGradient><linearGradient x1="32" y1="37" x2="32" y2="41.337" gradientUnits="userSpaceOnUse" id="color-5"><stop offset="0" stop-color="#004aad"></stop><stop offset="1" stop-color="#8c52ff"></stop></linearGradient></defs><g fill="none" fill-rule="nonzero" stroke="none" stroke-width="1" stroke-linecap="butt" stroke-linejoin="miter" stroke-miterlimit="10" stroke-dasharray="" stroke-dashoffset="0" font-family="none" font-weight="none" font-size="none" text-anchor="none" style="mix-blend-mode: normal"><g transform="scale(4,4)"><path d="M49,12h-34c-1.7,0 -3,1.3 -3,3v34c0,1.7 1.3,3 3,3h34c1.7,0 3,-1.3 3,-3v-34c0,-1.7 -1.3,-3 -3,-3zM50,49c0,0.6 -0.4,1 -1,1h-34c-0.6,0 -1,-0.4 -1,-1v-34c0,-0.6 0.4,-1 1,-1h34c0.6,0 1,0.4 1,1z" fill="url(#color-1)"></path><path d="M51,8h-38c-2.8,0 -5,2.2 -5,5v38c0,2.8 2.2,5 5,5h38c2.8,0 5,-2.2 5,-5v-38c0,-2.8 -2.2,-5 -5,-5zM54,51c0,1.7 -1.3,3 -3,3h-38c-1.7,0 -3,-1.3 -3,-3v-38c0,-1.7 1.3,-3 3,-3h38c1.7,0 3,1.3 3,3z" fill="url(#color-2)"></path><path d="M44,25c0,0.6 -0.4,1 -1,1h-22c-0.6,0 -1,-0.4 -1,-1v-2c0,-0.6 0.4,-1 1,-1h22c0.6,0 1,0.4 1,1z" fill="url(#color-3)"></path><path d="M44,33c0,0.6 -0.4,1 -1,1h-22c-0.6,0 -1,-0.4 -1,-1v-2c0,-0.6 0.4,-1 1,-1h22c0.6,0 1,0.4 1,1z" fill="url(#color-4)"></path><path d="M44,41c0,0.6 -0.4,1 -1,1h-22c-0.6,0 -1,-0.4 -1,-1v-2c0,-0.6 0.4,-1 1,-1h22c0.6,0 1,0.4 1,1z" fill="url(#color-5)"></path></g></g></svg>