<svg xmlns="http://www.w3.org/2000/svg" xmlns:xlink="http://www.w3.org/1999/xlink" width="500" zoomAndPan="magnify" viewBox="0 0 375 374.999991" height="500" preserveAspectRatio="xMidYMid meet" version="1.0"><defs><g/><clipPath id="c12757b82b"><path d="M 119.308594 110.136719 L 255.808594 110.136719 L 255.808594 212 L 119.308594 212 Z M 119.308594 110.136719 " clip-rule="nonzero"/></clipPath><clipPath id="4e869beb4c"><path d="M 136.042969 111.429688 L 146.148438 127.917969 L 146.300781 128.066406 C 160.152344 136.722656 173.480469 145.300781 187.144531 154.253906 L 187.558594 153.769531 L 165.84375 130.453125 L 165.804688 130.417969 L 148.023438 116.539062 L 147.945312 116.503906 L 136.492188 110.945312 Z M 124.734375 180.292969 L 129.414062 180.628906 L 123.910156 173.503906 L 123.273438 173.761719 L 123.835938 178.464844 C 123.835938 178.574219 123.800781 178.726562 123.648438 178.761719 L 119.308594 180.8125 L 119.492188 181.410156 L 124.585938 180.328125 C 124.621094 180.328125 124.660156 180.328125 124.699219 180.328125 Z M 130.761719 185.625 L 124.285156 187.378906 L 124.023438 187.566406 L 121.703125 191.035156 L 122.113281 191.59375 L 127.054688 190.140625 L 127.242188 190.027344 L 131.136719 186.222656 L 130.800781 185.664062 Z M 141.019531 181 L 132.109375 179.472656 L 131.8125 180.066406 L 135.40625 183.125 C 135.515625 183.199219 135.554688 183.351562 135.515625 183.5 L 133.71875 187.9375 L 134.28125 188.238281 L 137.316406 183.984375 C 137.316406 183.945312 137.351562 183.945312 137.390625 183.910156 L 141.058594 181 Z M 149.21875 175.144531 L 129.039062 172.90625 L 128.890625 173.503906 L 142.070312 177.941406 L 142.332031 177.941406 L 149.257812 175.777344 L 149.183594 175.144531 Z M 152.175781 173.613281 L 158.46875 174.398438 C 160.527344 172.234375 162.0625 170.742188 164.269531 168.726562 L 163.96875 168.128906 L 157.082031 169.136719 L 156.933594 169.175781 L 153.414062 171.078125 L 153.226562 171.265625 L 152.175781 173.578125 Z M 142.144531 186.558594 L 150.34375 184.132812 L 150.53125 184.023438 L 156.96875 177.71875 L 156.632812 177.15625 L 145.886719 180.066406 L 145.625 180.253906 L 141.730469 186.035156 L 142.144531 186.597656 Z M 130.425781 195.25 L 133.871094 195.699219 C 134.882812 194.617188 135.667969 193.871094 136.753906 192.863281 L 136.453125 192.265625 L 133.082031 192.75 L 132.933594 192.789062 L 131.175781 193.71875 L 130.988281 193.90625 L 130.386719 195.210938 Z M 137.425781 199.390625 L 126.832031 198.195312 L 126.683594 198.792969 L 133.609375 201.144531 L 133.871094 201.144531 L 137.464844 200.023438 L 137.390625 199.390625 Z M 137.726562 195.847656 L 145.25 193.71875 L 145.476562 193.570312 L 147.945312 190.4375 L 147.535156 189.953125 L 137.5 195.289062 Z M 153.972656 199.390625 L 153 199.914062 C 152.964844 199.914062 152.925781 199.949219 152.890625 199.949219 L 144.800781 200.769531 L 144.539062 200.921875 L 135.40625 210.769531 L 135.78125 211.328125 L 151.167969 205.472656 L 151.316406 205.398438 L 162.0625 195.957031 L 161.6875 195.4375 L 154.347656 199.242188 C 154.273438 199.277344 154.199219 199.277344 154.125 199.277344 C 154.085938 199.351562 154.050781 199.429688 153.972656 199.464844 Z M 154.050781 198.644531 L 166.402344 190.847656 L 166.140625 190.25 L 156.332031 192.863281 L 156.257812 192.863281 L 149.519531 193.234375 L 144.953125 199.429688 L 153.636719 198.832031 L 153.710938 198.792969 C 153.789062 198.757812 153.863281 198.757812 153.9375 198.792969 C 153.972656 198.71875 154.011719 198.683594 154.050781 198.644531 Z M 187.820312 190.175781 L 168.125 195.101562 L 168.199219 195.699219 L 182.089844 195.289062 L 182.351562 195.210938 L 188.082031 190.773438 L 187.78125 190.175781 Z M 186.320312 174.769531 L 175.800781 173.539062 L 175.726562 173.539062 L 169.097656 171.226562 L 152.515625 186.78125 L 152.8125 187.378906 L 168.351562 183.761719 L 168.425781 183.722656 L 186.433594 175.441406 Z M 176.960938 170.667969 L 186.695312 172.195312 L 186.921875 172.195312 L 192.347656 170.445312 L 192.3125 169.773438 L 172.167969 166.453125 L 171.90625 167.046875 L 176.8125 170.554688 L 177 170.628906 Z M 190.402344 185.664062 L 190.8125 175.890625 L 172.09375 184.804688 L 172.167969 185.476562 L 181.378906 187.675781 L 181.566406 187.675781 Z M 199.199219 179.769531 L 201.632812 171.113281 L 201.070312 170.777344 L 200.472656 171.375 C 200.433594 171.414062 200.398438 171.414062 200.398438 171.449219 C 200.398438 171.488281 200.359375 171.523438 200.324219 171.523438 L 193.246094 178.648438 L 193.136719 178.910156 L 192.648438 185.886719 L 193.285156 186.148438 L 199.164062 179.957031 L 199.273438 179.769531 Z M 212.789062 167.570312 L 205.75 172.941406 L 205.601562 173.128906 L 201.410156 183.164062 C 201.371094 183.199219 201.371094 183.238281 201.332031 183.277344 L 188.566406 193.644531 L 188.90625 194.207031 L 202.570312 188.574219 L 202.71875 188.460938 L 214.175781 176.039062 Z M 214.0625 158.765625 L 212.003906 150.074219 L 211.328125 150.039062 L 203.804688 170.445312 L 204.328125 170.855469 L 212.226562 165.332031 L 212.378906 165.109375 L 214.0625 158.953125 L 214.0625 158.730469 Z M 231.171875 148.472656 L 255.917969 139.40625 L 255.769531 138.808594 L 229.226562 143.921875 Z M 233.417969 150.074219 L 220.425781 158.65625 L 220.015625 172.160156 L 220.652344 172.308594 L 225.480469 160.445312 C 225.480469 160.410156 225.519531 160.371094 225.519531 160.371094 L 233.832031 150.597656 L 233.417969 150.113281 Z M 219.417969 147.761719 L 217.882812 150.261719 C 217.84375 150.335938 217.808594 150.375 217.730469 150.375 L 216.234375 150.933594 C 216.121094 150.972656 215.972656 150.972656 215.898438 150.859375 C 215.785156 150.746094 215.785156 150.5625 215.898438 150.410156 C 216.046875 150.261719 216.195312 150.039062 216.308594 149.816406 C 216.382812 149.589844 216.460938 149.367188 216.460938 149.105469 C 216.460938 148.84375 216.421875 148.621094 216.308594 148.398438 C 216.234375 148.171875 216.085938 147.988281 215.898438 147.800781 C 215.746094 147.652344 215.523438 147.5 215.296875 147.390625 C 215.074219 147.316406 214.847656 147.242188 214.585938 147.242188 C 214.324219 147.242188 214.101562 147.277344 213.875 147.390625 C 213.652344 147.464844 213.464844 147.613281 213.277344 147.800781 C 213.128906 147.949219 212.976562 148.171875 212.863281 148.398438 C 212.789062 148.621094 212.714844 148.84375 212.714844 149.105469 C 212.714844 149.367188 212.753906 149.589844 212.863281 149.816406 C 212.941406 150.039062 213.089844 150.226562 213.277344 150.410156 C 213.425781 150.5625 213.613281 150.710938 213.800781 150.785156 C 213.988281 150.859375 214.210938 150.933594 214.4375 150.933594 C 214.550781 150.933594 214.660156 151.007812 214.699219 151.121094 C 214.773438 151.269531 214.660156 151.457031 214.511719 151.53125 L 214.210938 151.640625 L 216.121094 158.058594 C 219.265625 155.1875 222.222656 152.277344 225.292969 149.292969 L 226.417969 148.171875 L 226.15625 147.539062 L 219.378906 147.6875 Z M 207.0625 140.9375 L 216.910156 143.695312 L 217.09375 143.695312 L 226.792969 142.054688 L 226.828125 141.382812 L 214.886719 138.472656 L 214.699219 138.472656 L 207.136719 140.265625 L 207.136719 140.9375 Z M 196.992188 153.621094 L 211.144531 144.964844 L 204.253906 142.875 L 199.386719 147.128906 L 199.273438 147.277344 L 196.46875 153.132812 L 196.953125 153.582031 Z M 198.226562 157.351562 C 198.113281 157.425781 197.964844 157.425781 197.851562 157.351562 L 187.257812 149.328125 L 186.808594 149.777344 L 195.679688 160.410156 C 195.679688 160.445312 195.71875 160.445312 195.71875 160.484375 L 200.136719 170.628906 L 209.53125 150.335938 L 209.007812 149.890625 L 198.1875 157.3125 Z M 163.820312 124.972656 C 173.78125 133.773438 183.363281 142.203125 194.296875 150.226562 L 194.78125 149.777344 L 190.664062 143.621094 L 190.550781 143.511719 L 156.519531 117.769531 L 156.144531 118.21875 C 158.691406 120.457031 161.273438 122.734375 163.820312 124.972656 Z M 194.035156 167.085938 L 163.035156 152.6875 L 162.585938 153.171875 L 168.949219 163.28125 L 193.847656 167.644531 L 194.035156 167.046875 Z M 163.445312 141.121094 L 150.71875 135.265625 L 150.304688 135.789062 L 159.816406 148.621094 L 160.003906 148.769531 L 193.585938 163.804688 L 193.882812 163.28125 L 163.519531 141.199219 L 163.445312 141.160156 Z M 163.445312 141.121094 " clip-rule="evenodd"/></clipPath><linearGradient x1="38.578304" gradientTransform="matrix(3.743829, 0, 0, 3.730329, 119.306658, 110.944697)" y1="4.174409" x2="-1.274776" gradientUnits="userSpaceOnUse" y2="24.397879" id="fcf281ce87"><stop stop-opacity="1" stop-color="rgb(54.899597%, 32.199097%, 100%)" offset="0"/><stop stop-opacity="1" stop-color="rgb(54.899597%, 32.199097%, 100%)" offset="0.125"/><stop stop-opacity="1" stop-color="rgb(54.899597%, 32.199097%, 100%)" offset="0.1875"/><stop stop-opacity="1" stop-color="rgb(54.899597%, 32.199097%, 100%)" offset="0.21875"/><stop stop-opacity="1" stop-color="rgb(54.899597%, 32.199097%, 100%)" offset="0.234375"/><stop stop-opacity="1" stop-color="rgb(54.829407%, 32.194519%, 99.957275%)" offset="0.242188"/><stop stop-opacity="1" stop-color="rgb(54.414368%, 32.170105%, 99.714661%)" offset="0.246094"/><stop stop-opacity="1" stop-color="rgb(54.069519%, 32.150269%, 99.513245%)" offset="0.25"/><stop stop-opacity="1" stop-color="rgb(53.72467%, 32.130432%, 99.310303%)" offset="0.253906"/><stop stop-opacity="1" stop-color="rgb(53.381348%, 32.110596%, 99.108887%)" offset="0.257812"/><stop stop-opacity="1" stop-color="rgb(53.036499%, 32.090759%, 98.907471%)" offset="0.261719"/><stop stop-opacity="1" stop-color="rgb(52.693176%, 32.070923%, 98.706055%)" offset="0.265625"/><stop stop-opacity="1" stop-color="rgb(52.348328%, 32.051086%, 98.503113%)" offset="0.269531"/><stop stop-opacity="1" stop-color="rgb(52.005005%, 32.03125%, 98.301697%)" offset="0.273438"/><stop stop-opacity="1" stop-color="rgb(51.660156%, 32.009888%, 98.098755%)" offset="0.277344"/><stop stop-opacity="1" stop-color="rgb(51.316833%, 31.990051%, 97.897339%)" offset="0.28125"/><stop stop-opacity="1" stop-color="rgb(50.971985%, 31.970215%, 97.695923%)" offset="0.285156"/><stop stop-opacity="1" stop-color="rgb(50.628662%, 31.950378%, 97.494507%)" offset="0.289062"/><stop stop-opacity="1" stop-color="rgb(50.283813%, 31.930542%, 97.291565%)" offset="0.292969"/><stop stop-opacity="1" stop-color="rgb(49.938965%, 31.910706%, 97.090149%)" offset="0.296875"/><stop stop-opacity="1" stop-color="rgb(49.594116%, 31.889343%, 96.888733%)" offset="0.300781"/><stop stop-opacity="1" stop-color="rgb(49.250793%, 31.869507%, 96.687317%)" offset="0.304688"/><stop stop-opacity="1" stop-color="rgb(48.905945%, 31.84967%, 96.484375%)" offset="0.308594"/><stop stop-opacity="1" stop-color="rgb(48.562622%, 31.829834%, 96.282959%)" offset="0.3125"/><stop stop-opacity="1" stop-color="rgb(48.217773%, 31.809998%, 96.080017%)" offset="0.316406"/><stop stop-opacity="1" stop-color="rgb(47.874451%, 31.790161%, 95.878601%)" offset="0.320312"/><stop stop-opacity="1" stop-color="rgb(47.529602%, 31.768799%, 95.677185%)" offset="0.324219"/><stop stop-opacity="1" stop-color="rgb(47.186279%, 31.748962%, 95.475769%)" offset="0.328125"/><stop stop-opacity="1" stop-color="rgb(46.841431%, 31.729126%, 95.272827%)" offset="0.332031"/><stop stop-opacity="1" stop-color="rgb(46.498108%, 31.70929%, 95.071411%)" offset="0.335938"/><stop stop-opacity="1" stop-color="rgb(46.153259%, 31.689453%, 94.868469%)" offset="0.339844"/><stop stop-opacity="1" stop-color="rgb(45.809937%, 31.669617%, 94.667053%)" offset="0.34375"/><stop stop-opacity="1" stop-color="rgb(45.465088%, 31.64978%, 94.465637%)" offset="0.347656"/><stop stop-opacity="1" stop-color="rgb(45.120239%, 31.629944%, 94.264221%)" offset="0.351563"/><stop stop-opacity="1" stop-color="rgb(44.775391%, 31.608582%, 94.061279%)" offset="0.355469"/><stop stop-opacity="1" stop-color="rgb(44.432068%, 31.588745%, 93.859863%)" offset="0.359375"/><stop stop-opacity="1" stop-color="rgb(44.087219%, 31.568909%, 93.658447%)" offset="0.363281"/><stop stop-opacity="1" stop-color="rgb(43.743896%, 31.549072%, 93.457031%)" offset="0.367188"/><stop stop-opacity="1" stop-color="rgb(43.399048%, 31.529236%, 93.254089%)" offset="0.371094"/><stop stop-opacity="1" stop-color="rgb(43.055725%, 31.509399%, 93.052673%)" offset="0.375"/><stop stop-opacity="1" stop-color="rgb(42.710876%, 31.488037%, 92.849731%)" offset="0.378906"/><stop stop-opacity="1" stop-color="rgb(42.367554%, 31.468201%, 92.648315%)" offset="0.382813"/><stop stop-opacity="1" stop-color="rgb(42.022705%, 31.448364%, 92.446899%)" offset="0.386719"/><stop stop-opacity="1" stop-color="rgb(41.679382%, 31.428528%, 92.245483%)" offset="0.390625"/><stop stop-opacity="1" stop-color="rgb(41.334534%, 31.408691%, 92.042542%)" offset="0.394531"/><stop stop-opacity="1" stop-color="rgb(40.989685%, 31.388855%, 91.841125%)" offset="0.398438"/><stop stop-opacity="1" stop-color="rgb(40.644836%, 31.367493%, 91.639709%)" offset="0.402344"/><stop stop-opacity="1" stop-color="rgb(40.301514%, 31.347656%, 91.438293%)" offset="0.40625"/><stop stop-opacity="1" stop-color="rgb(39.956665%, 31.32782%, 91.235352%)" offset="0.410156"/><stop stop-opacity="1" stop-color="rgb(39.613342%, 31.307983%, 91.033936%)" offset="0.414062"/><stop stop-opacity="1" stop-color="rgb(39.268494%, 31.288147%, 90.830994%)" offset="0.417969"/><stop stop-opacity="1" stop-color="rgb(38.925171%, 31.268311%, 90.629578%)" offset="0.421875"/><stop stop-opacity="1" stop-color="rgb(38.580322%, 31.248474%, 90.428162%)" offset="0.425781"/><stop stop-opacity="1" stop-color="rgb(38.237%, 31.228638%, 90.226746%)" offset="0.429688"/><stop stop-opacity="1" stop-color="rgb(37.892151%, 31.207275%, 90.023804%)" offset="0.433594"/><stop stop-opacity="1" stop-color="rgb(37.548828%, 31.187439%, 89.822388%)" offset="0.4375"/><stop stop-opacity="1" stop-color="rgb(37.203979%, 31.167603%, 89.620972%)" offset="0.441406"/><stop stop-opacity="1" stop-color="rgb(36.860657%, 31.147766%, 89.419556%)" offset="0.445313"/><stop stop-opacity="1" stop-color="rgb(36.515808%, 31.12793%, 89.216614%)" offset="0.449219"/><stop stop-opacity="1" stop-color="rgb(36.170959%, 31.108093%, 89.015198%)" offset="0.453125"/><stop stop-opacity="1" stop-color="rgb(35.826111%, 31.086731%, 88.812256%)" offset="0.457031"/><stop stop-opacity="1" stop-color="rgb(35.482788%, 31.066895%, 88.61084%)" offset="0.460938"/><stop stop-opacity="1" stop-color="rgb(35.137939%, 31.047058%, 88.409424%)" offset="0.464844"/><stop stop-opacity="1" stop-color="rgb(34.794617%, 31.027222%, 88.208008%)" offset="0.46875"/><stop stop-opacity="1" stop-color="rgb(34.449768%, 31.007385%, 88.005066%)" offset="0.472656"/><stop stop-opacity="1" stop-color="rgb(34.106445%, 30.987549%, 87.80365%)" offset="0.476563"/><stop stop-opacity="1" stop-color="rgb(33.761597%, 30.967712%, 87.600708%)" offset="0.480469"/><stop stop-opacity="1" stop-color="rgb(33.418274%, 30.947876%, 87.399292%)" offset="0.484375"/><stop stop-opacity="1" stop-color="rgb(33.073425%, 30.926514%, 87.197876%)" offset="0.488281"/><stop stop-opacity="1" stop-color="rgb(32.730103%, 30.906677%, 86.99646%)" offset="0.492188"/><stop stop-opacity="1" stop-color="rgb(32.385254%, 30.886841%, 86.793518%)" offset="0.496094"/><stop stop-opacity="1" stop-color="rgb(32.040405%, 30.867004%, 86.592102%)" offset="0.5"/><stop stop-opacity="1" stop-color="rgb(31.695557%, 30.847168%, 86.390686%)" offset="0.503906"/><stop stop-opacity="1" stop-color="rgb(31.352234%, 30.827332%, 86.18927%)" offset="0.507812"/><stop stop-opacity="1" stop-color="rgb(31.007385%, 30.805969%, 85.986328%)" offset="0.511719"/><stop stop-opacity="1" stop-color="rgb(30.664062%, 30.786133%, 85.784912%)" offset="0.515625"/><stop stop-opacity="1" stop-color="rgb(30.319214%, 30.766296%, 85.58197%)" offset="0.519531"/><stop stop-opacity="1" stop-color="rgb(29.975891%, 30.74646%, 85.380554%)" offset="0.523438"/><stop stop-opacity="1" stop-color="rgb(29.631042%, 30.726624%, 85.179138%)" offset="0.527344"/><stop stop-opacity="1" stop-color="rgb(29.28772%, 30.706787%, 84.977722%)" offset="0.53125"/><stop stop-opacity="1" stop-color="rgb(28.942871%, 30.685425%, 84.77478%)" offset="0.535156"/><stop stop-opacity="1" stop-color="rgb(28.599548%, 30.665588%, 84.573364%)" offset="0.539062"/><stop stop-opacity="1" stop-color="rgb(28.2547%, 30.645752%, 84.371948%)" offset="0.542969"/><stop stop-opacity="1" stop-color="rgb(27.909851%, 30.625916%, 84.170532%)" offset="0.546875"/><stop stop-opacity="1" stop-color="rgb(27.565002%, 30.606079%, 83.96759%)" offset="0.550781"/><stop stop-opacity="1" stop-color="rgb(27.22168%, 30.586243%, 83.766174%)" offset="0.554688"/><stop stop-opacity="1" stop-color="rgb(26.876831%, 30.566406%, 83.563232%)" offset="0.558594"/><stop stop-opacity="1" stop-color="rgb(26.533508%, 30.54657%, 83.361816%)" offset="0.5625"/><stop stop-opacity="1" stop-color="rgb(26.18866%, 30.525208%, 83.1604%)" offset="0.566406"/><stop stop-opacity="1" stop-color="rgb(25.845337%, 30.505371%, 82.958984%)" offset="0.570312"/><stop stop-opacity="1" stop-color="rgb(25.500488%, 30.485535%, 82.756042%)" offset="0.574219"/><stop stop-opacity="1" stop-color="rgb(25.157166%, 30.465698%, 82.554626%)" offset="0.578125"/><stop stop-opacity="1" stop-color="rgb(24.812317%, 30.445862%, 82.351685%)" offset="0.582031"/><stop stop-opacity="1" stop-color="rgb(24.468994%, 30.426025%, 82.150269%)" offset="0.585938"/><stop stop-opacity="1" stop-color="rgb(24.124146%, 30.404663%, 81.948853%)" offset="0.589844"/><stop stop-opacity="1" stop-color="rgb(23.780823%, 30.384827%, 81.747437%)" offset="0.59375"/><stop stop-opacity="1" stop-color="rgb(23.435974%, 30.36499%, 81.544495%)" offset="0.597656"/><stop stop-opacity="1" stop-color="rgb(23.091125%, 30.345154%, 81.343079%)" offset="0.601562"/><stop stop-opacity="1" stop-color="rgb(22.746277%, 30.325317%, 81.141663%)" offset="0.605469"/><stop stop-opacity="1" stop-color="rgb(22.402954%, 30.305481%, 80.940247%)" offset="0.609375"/><stop stop-opacity="1" stop-color="rgb(22.058105%, 30.284119%, 80.737305%)" offset="0.613281"/><stop stop-opacity="1" stop-color="rgb(21.714783%, 30.264282%, 80.535889%)" offset="0.617187"/><stop stop-opacity="1" stop-color="rgb(21.369934%, 30.244446%, 80.332947%)" offset="0.621094"/><stop stop-opacity="1" stop-color="rgb(21.026611%, 30.224609%, 80.131531%)" offset="0.625"/><stop stop-opacity="1" stop-color="rgb(20.681763%, 30.204773%, 79.930115%)" offset="0.628906"/><stop stop-opacity="1" stop-color="rgb(20.33844%, 30.184937%, 79.728699%)" offset="0.632812"/><stop stop-opacity="1" stop-color="rgb(19.993591%, 30.1651%, 79.525757%)" offset="0.636719"/><stop stop-opacity="1" stop-color="rgb(19.650269%, 30.145264%, 79.324341%)" offset="0.640625"/><stop stop-opacity="1" stop-color="rgb(19.30542%, 30.123901%, 79.122925%)" offset="0.644531"/><stop stop-opacity="1" stop-color="rgb(18.960571%, 30.104065%, 78.921509%)" offset="0.648438"/><stop stop-opacity="1" stop-color="rgb(18.615723%, 30.084229%, 78.718567%)" offset="0.652344"/><stop stop-opacity="1" stop-color="rgb(18.2724%, 30.064392%, 78.517151%)" offset="0.65625"/><stop stop-opacity="1" stop-color="rgb(17.927551%, 30.044556%, 78.314209%)" offset="0.660156"/><stop stop-opacity="1" stop-color="rgb(17.584229%, 30.024719%, 78.112793%)" offset="0.664062"/><stop stop-opacity="1" stop-color="rgb(17.23938%, 30.003357%, 77.911377%)" offset="0.667969"/><stop stop-opacity="1" stop-color="rgb(16.896057%, 29.983521%, 77.709961%)" offset="0.671875"/><stop stop-opacity="1" stop-color="rgb(16.551208%, 29.963684%, 77.507019%)" offset="0.675781"/><stop stop-opacity="1" stop-color="rgb(16.207886%, 29.943848%, 77.305603%)" offset="0.679688"/><stop stop-opacity="1" stop-color="rgb(15.863037%, 29.924011%, 77.104187%)" offset="0.683594"/><stop stop-opacity="1" stop-color="rgb(15.519714%, 29.904175%, 76.902771%)" offset="0.6875"/><stop stop-opacity="1" stop-color="rgb(15.174866%, 29.882812%, 76.699829%)" offset="0.691406"/><stop stop-opacity="1" stop-color="rgb(14.830017%, 29.862976%, 76.498413%)" offset="0.695312"/><stop stop-opacity="1" stop-color="rgb(14.485168%, 29.84314%, 76.295471%)" offset="0.699219"/><stop stop-opacity="1" stop-color="rgb(14.141846%, 29.823303%, 76.094055%)" offset="0.703125"/><stop stop-opacity="1" stop-color="rgb(13.796997%, 29.803467%, 75.892639%)" offset="0.707031"/><stop stop-opacity="1" stop-color="rgb(13.453674%, 29.78363%, 75.691223%)" offset="0.710938"/><stop stop-opacity="1" stop-color="rgb(13.108826%, 29.763794%, 75.488281%)" offset="0.714844"/><stop stop-opacity="1" stop-color="rgb(12.765503%, 29.743958%, 75.286865%)" offset="0.71875"/><stop stop-opacity="1" stop-color="rgb(12.420654%, 29.722595%, 75.083923%)" offset="0.722656"/><stop stop-opacity="1" stop-color="rgb(12.077332%, 29.702759%, 74.882507%)" offset="0.726562"/><stop stop-opacity="1" stop-color="rgb(11.732483%, 29.682922%, 74.681091%)" offset="0.730469"/><stop stop-opacity="1" stop-color="rgb(11.38916%, 29.663086%, 74.479675%)" offset="0.734375"/><stop stop-opacity="1" stop-color="rgb(11.044312%, 29.64325%, 74.276733%)" offset="0.738281"/><stop stop-opacity="1" stop-color="rgb(10.700989%, 29.623413%, 74.075317%)" offset="0.742188"/><stop stop-opacity="1" stop-color="rgb(10.35614%, 29.602051%, 73.873901%)" offset="0.746094"/><stop stop-opacity="1" stop-color="rgb(10.011292%, 29.582214%, 73.672485%)" offset="0.75"/><stop stop-opacity="1" stop-color="rgb(9.666443%, 29.562378%, 73.469543%)" offset="0.753906"/><stop stop-opacity="1" stop-color="rgb(9.32312%, 29.542542%, 73.268127%)" offset="0.757812"/><stop stop-opacity="1" stop-color="rgb(8.978271%, 29.522705%, 73.065186%)" offset="0.761719"/><stop stop-opacity="1" stop-color="rgb(8.634949%, 29.502869%, 72.86377%)" offset="0.765625"/><stop stop-opacity="1" stop-color="rgb(8.2901%, 29.483032%, 72.662354%)" offset="0.769531"/><stop stop-opacity="1" stop-color="rgb(7.946777%, 29.463196%, 72.460938%)" offset="0.773438"/><stop stop-opacity="1" stop-color="rgb(7.601929%, 29.441833%, 72.257996%)" offset="0.777344"/><stop stop-opacity="1" stop-color="rgb(7.258606%, 29.421997%, 72.05658%)" offset="0.78125"/><stop stop-opacity="1" stop-color="rgb(6.913757%, 29.402161%, 71.855164%)" offset="0.785156"/><stop stop-opacity="1" stop-color="rgb(6.570435%, 29.382324%, 71.653748%)" offset="0.789062"/><stop stop-opacity="1" stop-color="rgb(6.225586%, 29.362488%, 71.450806%)" offset="0.792969"/><stop stop-opacity="1" stop-color="rgb(5.880737%, 29.342651%, 71.24939%)" offset="0.796875"/><stop stop-opacity="1" stop-color="rgb(5.535889%, 29.321289%, 71.046448%)" offset="0.800781"/><stop stop-opacity="1" stop-color="rgb(5.192566%, 29.301453%, 70.845032%)" offset="0.804688"/><stop stop-opacity="1" stop-color="rgb(4.847717%, 29.281616%, 70.643616%)" offset="0.808594"/><stop stop-opacity="1" stop-color="rgb(4.504395%, 29.26178%, 70.4422%)" offset="0.8125"/><stop stop-opacity="1" stop-color="rgb(4.159546%, 29.241943%, 70.239258%)" offset="0.816406"/><stop stop-opacity="1" stop-color="rgb(3.816223%, 29.222107%, 70.037842%)" offset="0.820312"/><stop stop-opacity="1" stop-color="rgb(3.471375%, 29.200745%, 69.8349%)" offset="0.824219"/><stop stop-opacity="1" stop-color="rgb(3.128052%, 29.180908%, 69.633484%)" offset="0.828125"/><stop stop-opacity="1" stop-color="rgb(2.783203%, 29.161072%, 69.432068%)" offset="0.832031"/><stop stop-opacity="1" stop-color="rgb(2.43988%, 29.141235%, 69.230652%)" offset="0.835938"/><stop stop-opacity="1" stop-color="rgb(2.095032%, 29.121399%, 69.02771%)" offset="0.839844"/><stop stop-opacity="1" stop-color="rgb(1.751709%, 29.101562%, 68.826294%)" offset="0.84375"/><stop stop-opacity="1" stop-color="rgb(1.40686%, 29.081726%, 68.624878%)" offset="0.847656"/><stop stop-opacity="1" stop-color="rgb(1.062012%, 29.06189%, 68.423462%)" offset="0.851562"/><stop stop-opacity="1" stop-color="rgb(0.717163%, 29.040527%, 68.22052%)" offset="0.855469"/><stop stop-opacity="1" stop-color="rgb(0.37384%, 29.020691%, 68.019104%)" offset="0.859375"/><stop stop-opacity="1" stop-color="rgb(0.186157%, 29.01001%, 67.909241%)" offset="0.875"/><stop stop-opacity="1" stop-color="rgb(0%, 28.999329%, 67.799377%)" offset="1"/></linearGradient></defs><rect x="-37.5" width="450" fill="#ffffff" y="-37.499999" height="449.999989" fill-opacity="1"/><rect x="-37.5" width="450" fill="#ffffff" y="-37.499999" height="449.999989" fill-opacity="1"/><rect x="-37.5" width="450" fill="#2b2744" y="-37.499999" height="449.999989" fill-opacity="1"/><g clip-path="url(#c12757b82b)"><g clip-path="url(#4e869beb4c)"><path fill="url(#fcf281ce87)" d="M 119.308594 110.945312 L 119.308594 211.328125 L 255.808594 211.328125 L 255.808594 110.945312 Z M 119.308594 110.945312 " fill-rule="nonzero"/></g></g><g fill="#ffffff" fill-opacity="1"><g transform="translate(80.834326, 238.878001)"><g><path d="M 5.359375 -5.6875 L 5.359375 0 L 1 0 L 1 -16.015625 L 8.40625 -16.015625 C 10.84375 -16.015625 12.0625 -14.984375 12.0625 -12.921875 L 12.0625 -8.78125 C 12.0625 -7.195312 11.347656 -6.222656 9.921875 -5.859375 L 12.875 0 L 8.171875 0 L 5.640625 -5.6875 Z M 7.078125 -12.890625 L 5.359375 -12.890625 L 5.359375 -8.65625 L 7.078125 -8.65625 C 7.492188 -8.65625 7.703125 -8.835938 7.703125 -9.203125 L 7.703125 -12.34375 C 7.703125 -12.707031 7.492188 -12.890625 7.078125 -12.890625 Z M 7.078125 -12.890625 "/></g></g></g><g fill="#ffffff" fill-opacity="1"><g transform="translate(96.987603, 238.878001)"><g><path d="M 1 -16.015625 L 5.359375 -16.015625 L 5.359375 0 L 1 0 Z M 1 -16.015625 "/></g></g></g><g fill="#ffffff" fill-opacity="1"><g transform="translate(106.685108, 238.878001)"><g><path d="M 11.71875 -10.03125 L 7.359375 -10.03125 L 7.359375 -12.59375 C 7.359375 -12.957031 7.148438 -13.140625 6.734375 -13.140625 L 5.859375 -13.140625 C 5.441406 -13.140625 5.234375 -12.957031 5.234375 -12.59375 L 5.234375 -3.421875 C 5.234375 -3.054688 5.441406 -2.875 5.859375 -2.875 L 6.734375 -2.875 C 7.148438 -2.875 7.359375 -3.054688 7.359375 -3.421875 L 7.359375 -5.890625 L 11.71875 -5.890625 L 11.71875 -3.09375 C 11.71875 -1.03125 10.5 0 8.0625 0 L 4.53125 0 C 2.09375 0 0.875 -1.03125 0.875 -3.09375 L 0.875 -12.921875 C 0.875 -14.984375 2.09375 -16.015625 4.53125 -16.015625 L 8.0625 -16.015625 C 10.5 -16.015625 11.71875 -14.984375 11.71875 -12.921875 Z M 11.71875 -10.03125 "/></g></g></g><g fill="#ffffff" fill-opacity="1"><g transform="translate(122.364795, 238.878001)"><g><path d="M 9.15625 0 L 8.65625 -2.390625 L 4.8125 -2.390625 L 4.296875 0 L 0 0 L 4.109375 -16.015625 L 9.421875 -16.015625 L 13.546875 0 Z M 5.484375 -5.484375 L 7.984375 -5.484375 L 6.765625 -11.25 Z M 5.484375 -5.484375 "/></g></g></g><g fill="#ffffff" fill-opacity="1"><g transform="translate(139.240915, 238.878001)"><g><path d="M 5.359375 -5.6875 L 5.359375 0 L 1 0 L 1 -16.015625 L 8.40625 -16.015625 C 10.84375 -16.015625 12.0625 -14.984375 12.0625 -12.921875 L 12.0625 -8.78125 C 12.0625 -7.195312 11.347656 -6.222656 9.921875 -5.859375 L 12.875 0 L 8.171875 0 L 5.640625 -5.6875 Z M 7.078125 -12.890625 L 5.359375 -12.890625 L 5.359375 -8.65625 L 7.078125 -8.65625 C 7.492188 -8.65625 7.703125 -8.835938 7.703125 -9.203125 L 7.703125 -12.34375 C 7.703125 -12.707031 7.492188 -12.890625 7.078125 -12.890625 Z M 7.078125 -12.890625 "/></g></g></g><g fill="#ffffff" fill-opacity="1"><g transform="translate(155.394192, 238.878001)"><g><path d="M 1.25 -16.015625 L 8.609375 -16.015625 C 11.046875 -16.015625 12.265625 -14.984375 12.265625 -12.921875 L 12.265625 -3.09375 C 12.265625 -1.03125 11.046875 0 8.609375 0 L 1.25 0 Z M 7.90625 -3.421875 L 7.90625 -12.59375 C 7.90625 -12.957031 7.695312 -13.140625 7.28125 -13.140625 L 5.609375 -13.140625 L 5.609375 -2.875 L 7.28125 -2.875 C 7.695312 -2.875 7.90625 -3.054688 7.90625 -3.421875 Z M 7.90625 -3.421875 "/></g></g></g><g fill="#ffffff" fill-opacity="1"><g transform="translate(171.921359, 238.878001)"><g><path d="M 4.59375 -16.015625 L 8.28125 -16.015625 C 10.71875 -16.015625 11.9375 -14.984375 11.9375 -12.921875 L 11.9375 -3.09375 C 11.9375 -1.03125 10.71875 0 8.28125 0 L 4.59375 0 C 2.144531 0 0.921875 -1.03125 0.921875 -3.09375 L 0.921875 -12.921875 C 0.921875 -14.984375 2.144531 -16.015625 4.59375 -16.015625 Z M 7.578125 -3.671875 L 7.578125 -12.34375 C 7.578125 -12.707031 7.367188 -12.890625 6.953125 -12.890625 L 5.90625 -12.890625 C 5.488281 -12.890625 5.28125 -12.707031 5.28125 -12.34375 L 5.28125 -3.671875 C 5.28125 -3.296875 5.488281 -3.109375 5.90625 -3.109375 L 6.953125 -3.109375 C 7.367188 -3.109375 7.578125 -3.296875 7.578125 -3.671875 Z M 7.578125 -3.671875 "/></g></g></g><g fill="#ffffff" fill-opacity="1"><g transform="translate(188.124486, 238.878001)"><g/></g></g><g fill="#ffffff" fill-opacity="1"><g transform="translate(196.45107, 238.878001)"><g><path d="M 11.078125 -16.015625 L 11.078125 -12.890625 L 5.0625 -3.109375 L 10.890625 -3.109375 L 10.890625 0 L 0.5 0 L 0.5 -3.109375 L 6.515625 -12.890625 L 0.828125 -12.890625 L 0.828125 -16.015625 Z M 11.078125 -16.015625 "/></g></g></g><g fill="#ffffff" fill-opacity="1"><g transform="translate(211.358063, 238.878001)"><g><path d="M 9.15625 0 L 8.65625 -2.390625 L 4.8125 -2.390625 L 4.296875 0 L 0 0 L 4.109375 -16.015625 L 9.421875 -16.015625 L 13.546875 0 Z M 5.484375 -5.484375 L 7.984375 -5.484375 L 6.765625 -11.25 Z M 5.484375 -5.484375 "/></g></g></g><g fill="#ffffff" fill-opacity="1"><g transform="translate(228.234183, 238.878001)"><g><path d="M 4.890625 0 L 1 0 L 1 -16.015625 L 5.765625 -16.015625 L 8.359375 -7.453125 L 10.953125 -16.015625 L 15.703125 -16.015625 L 15.703125 0 L 11.84375 0 L 11.84375 -10.171875 L 9.84375 -3.46875 L 6.859375 -3.46875 L 4.890625 -10.125 Z M 4.890625 0 "/></g></g></g><g fill="#ffffff" fill-opacity="1"><g transform="translate(248.275877, 238.878001)"><g><path d="M 4.59375 -16.015625 L 8.28125 -16.015625 C 10.71875 -16.015625 11.9375 -14.984375 11.9375 -12.921875 L 11.9375 -3.09375 C 11.9375 -1.03125 10.71875 0 8.28125 0 L 4.59375 0 C 2.144531 0 0.921875 -1.03125 0.921875 -3.09375 L 0.921875 -12.921875 C 0.921875 -14.984375 2.144531 -16.015625 4.59375 -16.015625 Z M 7.578125 -3.671875 L 7.578125 -12.34375 C 7.578125 -12.707031 7.367188 -12.890625 6.953125 -12.890625 L 5.90625 -12.890625 C 5.488281 -12.890625 5.28125 -12.707031 5.28125 -12.34375 L 5.28125 -3.671875 C 5.28125 -3.296875 5.488281 -3.109375 5.90625 -3.109375 L 6.953125 -3.109375 C 7.367188 -3.109375 7.578125 -3.296875 7.578125 -3.671875 Z M 7.578125 -3.671875 "/></g></g></g><g fill="#ffffff" fill-opacity="1"><g transform="translate(264.479005, 238.878001)"><g><path d="M 5.359375 -5.6875 L 5.359375 0 L 1 0 L 1 -16.015625 L 8.40625 -16.015625 C 10.84375 -16.015625 12.0625 -14.984375 12.0625 -12.921875 L 12.0625 -8.78125 C 12.0625 -7.195312 11.347656 -6.222656 9.921875 -5.859375 L 12.875 0 L 8.171875 0 L 5.640625 -5.6875 Z M 7.078125 -12.890625 L 5.359375 -12.890625 L 5.359375 -8.65625 L 7.078125 -8.65625 C 7.492188 -8.65625 7.703125 -8.835938 7.703125 -9.203125 L 7.703125 -12.34375 C 7.703125 -12.707031 7.492188 -12.890625 7.078125 -12.890625 Z M 7.078125 -12.890625 "/></g></g></g><g fill="#ffffff" fill-opacity="1"><g transform="translate(280.63227, 238.878001)"><g><path d="M 9.15625 0 L 8.65625 -2.390625 L 4.8125 -2.390625 L 4.296875 0 L 0 0 L 4.109375 -16.015625 L 9.421875 -16.015625 L 13.546875 0 Z M 5.484375 -5.484375 L 7.984375 -5.484375 L 6.765625 -11.25 Z M 5.484375 -5.484375 "/></g></g></g><g fill="#ffffff" fill-opacity="1"><g transform="translate(148.127485, 260.647893)"><g><path d="M 0.5625 -8.546875 L 5.90625 -8.546875 L 5.90625 -6.890625 L 2.40625 -6.890625 L 2.40625 -5.34375 L 5.484375 -5.34375 L 5.484375 -3.671875 L 2.40625 -3.671875 L 2.40625 0 L 0.5625 0 Z M 0.5625 -8.546875 "/></g></g></g><g fill="#ffffff" fill-opacity="1"><g transform="translate(156.388918, 260.647893)"><g><path d="M 4.328125 -5.984375 L 6 -5.984375 L 6 0 L 4.578125 0 L 4.328125 -0.453125 C 4.140625 -0.316406 3.921875 -0.207031 3.671875 -0.125 C 3.429688 -0.0390625 3.171875 0 2.890625 0 C 2.671875 0 2.421875 -0.03125 2.140625 -0.09375 C 1.859375 -0.15625 1.597656 -0.273438 1.359375 -0.453125 C 1.117188 -0.628906 0.914062 -0.875 0.75 -1.1875 C 0.582031 -1.507812 0.5 -1.914062 0.5 -2.40625 L 0.5 -5.984375 L 2.1875 -5.984375 L 2.1875 -2.46875 C 2.1875 -2.289062 2.210938 -2.132812 2.265625 -2 C 2.328125 -1.875 2.410156 -1.769531 2.515625 -1.6875 C 2.617188 -1.613281 2.734375 -1.554688 2.859375 -1.515625 C 2.984375 -1.484375 3.113281 -1.46875 3.25 -1.46875 C 3.351562 -1.46875 3.46875 -1.484375 3.59375 -1.515625 C 3.71875 -1.554688 3.832031 -1.617188 3.9375 -1.703125 C 4.050781 -1.785156 4.144531 -1.890625 4.21875 -2.015625 C 4.289062 -2.140625 4.328125 -2.289062 4.328125 -2.46875 Z M 4.328125 -5.984375 "/></g></g></g><g fill="#ffffff" fill-opacity="1"><g transform="translate(165.132697, 260.647893)"><g><path d="M 0.59375 -8.8125 L 2.25 -8.8125 L 2.25 0 L 0.59375 0 Z M 0.59375 -8.8125 "/></g></g></g><g fill="#ffffff" fill-opacity="1"><g transform="translate(170.065937, 260.647893)"><g><path d="M 0.59375 -8.8125 L 2.25 -8.8125 L 2.25 0 L 0.59375 0 Z M 0.59375 -8.8125 "/></g></g></g><g fill="#ffffff" fill-opacity="1"><g transform="translate(180.511224, 260.647893)"><g><path d="M 6 -4.40625 C 6.34375 -4.195312 6.601562 -3.9375 6.78125 -3.625 C 6.957031 -3.3125 7.046875 -2.953125 7.046875 -2.546875 C 7.046875 -2.160156 6.953125 -1.800781 6.765625 -1.46875 C 6.578125 -1.132812 6.316406 -0.835938 5.984375 -0.578125 C 5.679688 -0.347656 5.332031 -0.171875 4.9375 -0.046875 C 4.550781 0.078125 4.140625 0.144531 3.703125 0.15625 C 3.265625 0.15625 2.847656 0.0976562 2.453125 -0.015625 C 2.066406 -0.140625 1.71875 -0.320312 1.40625 -0.5625 C 0.945312 -0.90625 0.632812 -1.328125 0.46875 -1.828125 L 2.15625 -2.609375 C 2.15625 -2.523438 2.179688 -2.421875 2.234375 -2.296875 C 2.296875 -2.179688 2.382812 -2.066406 2.5 -1.953125 C 2.625 -1.835938 2.78125 -1.738281 2.96875 -1.65625 C 3.164062 -1.582031 3.40625 -1.546875 3.6875 -1.546875 C 3.914062 -1.546875 4.113281 -1.570312 4.28125 -1.625 C 4.457031 -1.6875 4.601562 -1.757812 4.71875 -1.84375 C 4.832031 -1.925781 4.921875 -2.019531 4.984375 -2.125 C 5.046875 -2.238281 5.078125 -2.347656 5.078125 -2.453125 C 5.078125 -2.585938 5.035156 -2.707031 4.953125 -2.8125 C 4.867188 -2.925781 4.738281 -3.019531 4.5625 -3.09375 C 4.238281 -3.195312 3.894531 -3.285156 3.53125 -3.359375 C 3.175781 -3.441406 2.828125 -3.539062 2.484375 -3.65625 C 2.148438 -3.769531 1.835938 -3.925781 1.546875 -4.125 C 1.265625 -4.320312 1.039062 -4.59375 0.875 -4.9375 C 0.71875 -5.238281 0.640625 -5.5625 0.640625 -5.90625 C 0.640625 -6.289062 0.726562 -6.664062 0.90625 -7.03125 C 1.09375 -7.394531 1.34375 -7.703125 1.65625 -7.953125 C 1.945312 -8.179688 2.273438 -8.359375 2.640625 -8.484375 C 3.015625 -8.609375 3.410156 -8.671875 3.828125 -8.671875 C 4.234375 -8.671875 4.625 -8.609375 5 -8.484375 C 5.375 -8.367188 5.707031 -8.195312 6 -7.96875 C 6.289062 -7.75 6.519531 -7.492188 6.6875 -7.203125 L 5.3125 -6.265625 C 5.144531 -6.492188 4.9375 -6.675781 4.6875 -6.8125 C 4.4375 -6.957031 4.148438 -7.03125 3.828125 -7.03125 C 3.398438 -7.03125 3.066406 -6.929688 2.828125 -6.734375 C 2.585938 -6.546875 2.46875 -6.296875 2.46875 -5.984375 C 2.46875 -5.835938 2.535156 -5.707031 2.671875 -5.59375 C 2.804688 -5.476562 2.976562 -5.375 3.1875 -5.28125 C 3.40625 -5.195312 3.644531 -5.117188 3.90625 -5.046875 C 4.175781 -4.984375 4.441406 -4.914062 4.703125 -4.84375 C 4.960938 -4.78125 5.207031 -4.710938 5.4375 -4.640625 C 5.675781 -4.566406 5.863281 -4.488281 6 -4.40625 Z M 6 -4.40625 "/></g></g></g><g fill="#ffffff" fill-opacity="1"><g transform="translate(190.135281, 260.647893)"><g><path d="M 2.75 -2.140625 C 2.75 -1.859375 2.832031 -1.640625 3 -1.484375 C 3.175781 -1.335938 3.40625 -1.265625 3.6875 -1.265625 C 3.914062 -1.265625 4.140625 -1.3125 4.359375 -1.40625 L 4.359375 0 C 4.160156 0.0625 3.945312 0.113281 3.71875 0.15625 C 3.5 0.207031 3.273438 0.234375 3.046875 0.234375 C 2.796875 0.234375 2.550781 0.195312 2.3125 0.125 C 2.082031 0.0625 1.875 -0.046875 1.6875 -0.203125 C 1.5 -0.359375 1.347656 -0.566406 1.234375 -0.828125 C 1.128906 -1.085938 1.078125 -1.410156 1.078125 -1.796875 L 1.078125 -4.5 L 0.234375 -4.5 L 0.234375 -5.625 L 1.078125 -5.984375 L 1.078125 -7.328125 L 2.75 -7.328125 L 2.75 -5.984375 L 4.359375 -5.984375 L 4.359375 -4.5 L 2.75 -4.5 Z M 2.75 -2.140625 "/></g></g></g><g fill="#ffffff" fill-opacity="1"><g transform="translate(196.949665, 260.647893)"><g><path d="M 6.796875 -5.984375 L 6.796875 0 L 5.375 0 L 5.203125 -0.640625 C 4.960938 -0.328125 4.679688 -0.117188 4.359375 -0.015625 C 4.035156 0.0859375 3.695312 0.140625 3.34375 0.140625 C 2.914062 0.140625 2.519531 0.0625 2.15625 -0.09375 C 1.800781 -0.257812 1.488281 -0.484375 1.21875 -0.765625 C 0.957031 -1.054688 0.753906 -1.394531 0.609375 -1.78125 C 0.460938 -2.164062 0.390625 -2.570312 0.390625 -3 C 0.390625 -3.4375 0.460938 -3.84375 0.609375 -4.21875 C 0.753906 -4.601562 0.957031 -4.9375 1.21875 -5.21875 C 1.488281 -5.507812 1.800781 -5.738281 2.15625 -5.90625 C 2.519531 -6.070312 2.914062 -6.15625 3.34375 -6.15625 C 3.726562 -6.15625 4.082031 -6.09375 4.40625 -5.96875 C 4.726562 -5.851562 4.992188 -5.660156 5.203125 -5.390625 L 5.375 -5.984375 Z M 5.140625 -2.984375 C 5.140625 -3.296875 5.097656 -3.554688 5.015625 -3.765625 C 4.929688 -3.984375 4.816406 -4.15625 4.671875 -4.28125 C 4.535156 -4.414062 4.367188 -4.515625 4.171875 -4.578125 C 3.984375 -4.640625 3.785156 -4.671875 3.578125 -4.671875 C 3.359375 -4.671875 3.148438 -4.625 2.953125 -4.53125 C 2.765625 -4.445312 2.597656 -4.328125 2.453125 -4.171875 C 2.316406 -4.023438 2.207031 -3.847656 2.125 -3.640625 C 2.039062 -3.441406 2 -3.226562 2 -3 C 2 -2.769531 2.039062 -2.550781 2.125 -2.34375 C 2.207031 -2.144531 2.316406 -1.972656 2.453125 -1.828125 C 2.597656 -1.679688 2.765625 -1.5625 2.953125 -1.46875 C 3.148438 -1.382812 3.359375 -1.34375 3.578125 -1.34375 C 4.003906 -1.34375 4.367188 -1.472656 4.671875 -1.734375 C 4.972656 -2.003906 5.128906 -2.421875 5.140625 -2.984375 Z M 5.140625 -2.984375 "/></g></g></g><g fill="#ffffff" fill-opacity="1"><g transform="translate(206.47726, 260.647893)"><g><path d="M 3.484375 -4.671875 C 3.285156 -4.671875 3.097656 -4.625 2.921875 -4.53125 C 2.742188 -4.4375 2.585938 -4.3125 2.453125 -4.15625 C 2.316406 -4 2.210938 -3.816406 2.140625 -3.609375 C 2.066406 -3.398438 2.03125 -3.175781 2.03125 -2.9375 C 2.03125 -2.6875 2.066406 -2.460938 2.140625 -2.265625 C 2.210938 -2.078125 2.316406 -1.910156 2.453125 -1.765625 C 2.585938 -1.628906 2.742188 -1.519531 2.921875 -1.4375 C 3.097656 -1.351562 3.285156 -1.3125 3.484375 -1.3125 C 3.734375 -1.3125 3.976562 -1.367188 4.21875 -1.484375 C 4.457031 -1.609375 4.660156 -1.773438 4.828125 -1.984375 L 5.84375 -0.96875 C 5.5625 -0.625 5.21875 -0.351562 4.8125 -0.15625 C 4.40625 0.0390625 3.960938 0.140625 3.484375 0.140625 C 3.046875 0.140625 2.640625 0.0625 2.265625 -0.09375 C 1.890625 -0.257812 1.5625 -0.484375 1.28125 -0.765625 C 1 -1.054688 0.773438 -1.394531 0.609375 -1.78125 C 0.441406 -2.164062 0.359375 -2.570312 0.359375 -3 C 0.359375 -3.4375 0.441406 -3.84375 0.609375 -4.21875 C 0.773438 -4.601562 1 -4.9375 1.28125 -5.21875 C 1.5625 -5.507812 1.890625 -5.738281 2.265625 -5.90625 C 2.640625 -6.070312 3.046875 -6.15625 3.484375 -6.15625 C 3.972656 -6.15625 4.425781 -6.050781 4.84375 -5.84375 C 5.257812 -5.632812 5.613281 -5.347656 5.90625 -4.984375 L 4.75 -4.09375 C 4.519531 -4.3125 4.304688 -4.460938 4.109375 -4.546875 C 3.921875 -4.628906 3.710938 -4.671875 3.484375 -4.671875 Z M 3.484375 -4.671875 "/></g></g></g><g fill="#ffffff" fill-opacity="1"><g transform="translate(214.883391, 260.647893)"><g><path d="M 3.859375 -3.5 L 6.375 0 L 4.390625 0 L 2.8125 -2.390625 L 2.21875 -1.75 L 2.21875 0 L 0.5625 0 L 0.5625 -8.8125 L 2.21875 -8.8125 L 2.21875 -3.921875 L 4.15625 -5.984375 L 6.1875 -5.984375 Z M 3.859375 -3.5 "/></g></g></g><g fill="#ffffff" fill-opacity="1"><g transform="translate(223.53764, 260.647893)"><g/></g></g><g fill="#ffffff" fill-opacity="1"><g transform="translate(116.979049, 277.147892)"><g><path d="M 6 -4.40625 C 6.34375 -4.195312 6.601562 -3.9375 6.78125 -3.625 C 6.957031 -3.3125 7.046875 -2.953125 7.046875 -2.546875 C 7.046875 -2.160156 6.953125 -1.800781 6.765625 -1.46875 C 6.578125 -1.132812 6.316406 -0.835938 5.984375 -0.578125 C 5.679688 -0.347656 5.332031 -0.171875 4.9375 -0.046875 C 4.550781 0.078125 4.140625 0.144531 3.703125 0.15625 C 3.265625 0.15625 2.847656 0.0976562 2.453125 -0.015625 C 2.066406 -0.140625 1.71875 -0.320312 1.40625 -0.5625 C 0.945312 -0.90625 0.632812 -1.328125 0.46875 -1.828125 L 2.15625 -2.609375 C 2.15625 -2.523438 2.179688 -2.421875 2.234375 -2.296875 C 2.296875 -2.179688 2.382812 -2.066406 2.5 -1.953125 C 2.625 -1.835938 2.78125 -1.738281 2.96875 -1.65625 C 3.164062 -1.582031 3.40625 -1.546875 3.6875 -1.546875 C 3.914062 -1.546875 4.113281 -1.570312 4.28125 -1.625 C 4.457031 -1.6875 4.601562 -1.757812 4.71875 -1.84375 C 4.832031 -1.925781 4.921875 -2.019531 4.984375 -2.125 C 5.046875 -2.238281 5.078125 -2.347656 5.078125 -2.453125 C 5.078125 -2.585938 5.035156 -2.707031 4.953125 -2.8125 C 4.867188 -2.925781 4.738281 -3.019531 4.5625 -3.09375 C 4.238281 -3.195312 3.894531 -3.285156 3.53125 -3.359375 C 3.175781 -3.441406 2.828125 -3.539062 2.484375 -3.65625 C 2.148438 -3.769531 1.835938 -3.925781 1.546875 -4.125 C 1.265625 -4.320312 1.039062 -4.59375 0.875 -4.9375 C 0.71875 -5.238281 0.640625 -5.5625 0.640625 -5.90625 C 0.640625 -6.289062 0.726562 -6.664062 0.90625 -7.03125 C 1.09375 -7.394531 1.34375 -7.703125 1.65625 -7.953125 C 1.945312 -8.179688 2.273438 -8.359375 2.640625 -8.484375 C 3.015625 -8.609375 3.410156 -8.671875 3.828125 -8.671875 C 4.234375 -8.671875 4.625 -8.609375 5 -8.484375 C 5.375 -8.367188 5.707031 -8.195312 6 -7.96875 C 6.289062 -7.75 6.519531 -7.492188 6.6875 -7.203125 L 5.3125 -6.265625 C 5.144531 -6.492188 4.9375 -6.675781 4.6875 -6.8125 C 4.4375 -6.957031 4.148438 -7.03125 3.828125 -7.03125 C 3.398438 -7.03125 3.066406 -6.929688 2.828125 -6.734375 C 2.585938 -6.546875 2.46875 -6.296875 2.46875 -5.984375 C 2.46875 -5.835938 2.535156 -5.707031 2.671875 -5.59375 C 2.804688 -5.476562 2.976562 -5.375 3.1875 -5.28125 C 3.40625 -5.195312 3.644531 -5.117188 3.90625 -5.046875 C 4.175781 -4.984375 4.441406 -4.914062 4.703125 -4.84375 C 4.960938 -4.78125 5.207031 -4.710938 5.4375 -4.640625 C 5.675781 -4.566406 5.863281 -4.488281 6 -4.40625 Z M 6 -4.40625 "/></g></g></g><g fill="#ffffff" fill-opacity="1"><g transform="translate(126.603108, 277.147892)"><g><path d="M 3.484375 -6.15625 C 3.910156 -6.15625 4.3125 -6.070312 4.6875 -5.90625 C 5.070312 -5.738281 5.40625 -5.507812 5.6875 -5.21875 C 5.96875 -4.9375 6.1875 -4.601562 6.34375 -4.21875 C 6.507812 -3.84375 6.59375 -3.4375 6.59375 -3 C 6.59375 -2.570312 6.507812 -2.164062 6.34375 -1.78125 C 6.1875 -1.394531 5.96875 -1.054688 5.6875 -0.765625 C 5.40625 -0.484375 5.070312 -0.257812 4.6875 -0.09375 C 4.3125 0.0625 3.910156 0.140625 3.484375 0.140625 C 3.046875 0.140625 2.640625 0.0625 2.265625 -0.09375 C 1.890625 -0.257812 1.5625 -0.484375 1.28125 -0.765625 C 1 -1.054688 0.773438 -1.394531 0.609375 -1.78125 C 0.441406 -2.164062 0.359375 -2.570312 0.359375 -3 C 0.359375 -3.4375 0.441406 -3.84375 0.609375 -4.21875 C 0.773438 -4.601562 1 -4.9375 1.28125 -5.21875 C 1.5625 -5.507812 1.890625 -5.738281 2.265625 -5.90625 C 2.640625 -6.070312 3.046875 -6.15625 3.484375 -6.15625 Z M 3.484375 -1.3125 C 3.679688 -1.3125 3.867188 -1.351562 4.046875 -1.4375 C 4.222656 -1.519531 4.375 -1.628906 4.5 -1.765625 C 4.632812 -1.910156 4.738281 -2.078125 4.8125 -2.265625 C 4.894531 -2.460938 4.9375 -2.6875 4.9375 -2.9375 C 4.9375 -3.175781 4.894531 -3.398438 4.8125 -3.609375 C 4.738281 -3.816406 4.632812 -4 4.5 -4.15625 C 4.375 -4.3125 4.222656 -4.4375 4.046875 -4.53125 C 3.867188 -4.625 3.679688 -4.671875 3.484375 -4.671875 C 3.285156 -4.671875 3.097656 -4.625 2.921875 -4.53125 C 2.742188 -4.4375 2.585938 -4.3125 2.453125 -4.15625 C 2.316406 -4 2.210938 -3.816406 2.140625 -3.609375 C 2.066406 -3.398438 2.03125 -3.175781 2.03125 -2.9375 C 2.03125 -2.6875 2.066406 -2.460938 2.140625 -2.265625 C 2.210938 -2.078125 2.316406 -1.910156 2.453125 -1.765625 C 2.585938 -1.628906 2.742188 -1.519531 2.921875 -1.4375 C 3.097656 -1.351562 3.285156 -1.3125 3.484375 -1.3125 Z M 3.484375 -1.3125 "/></g></g></g><g fill="#ffffff" fill-opacity="1"><g transform="translate(135.720708, 277.147892)"><g><path d="M 1.015625 -6.484375 C 1.015625 -6.898438 1.078125 -7.257812 1.203125 -7.5625 C 1.328125 -7.863281 1.492188 -8.113281 1.703125 -8.3125 C 1.910156 -8.507812 2.148438 -8.65625 2.421875 -8.75 C 2.691406 -8.84375 2.984375 -8.890625 3.296875 -8.890625 C 3.484375 -8.890625 3.664062 -8.875 3.84375 -8.84375 C 4.03125 -8.8125 4.21875 -8.765625 4.40625 -8.703125 L 4.265625 -7.484375 L 3.875 -7.546875 C 3.8125 -7.546875 3.753906 -7.546875 3.703125 -7.546875 C 3.648438 -7.554688 3.597656 -7.5625 3.546875 -7.5625 C 3.242188 -7.5625 3.019531 -7.484375 2.875 -7.328125 C 2.738281 -7.179688 2.671875 -6.96875 2.671875 -6.6875 L 2.671875 -5.984375 L 4.265625 -5.984375 L 4.265625 -4.5 L 2.671875 -4.5 L 2.671875 0 L 1.015625 0 L 1.015625 -4.5 L 0.234375 -4.5 L 0.234375 -5.375 L 1.015625 -5.984375 Z M 1.015625 -6.484375 "/></g></g></g><g fill="#ffffff" fill-opacity="1"><g transform="translate(142.486858, 277.147892)"><g><path d="M 2.75 -2.140625 C 2.75 -1.859375 2.832031 -1.640625 3 -1.484375 C 3.175781 -1.335938 3.40625 -1.265625 3.6875 -1.265625 C 3.914062 -1.265625 4.140625 -1.3125 4.359375 -1.40625 L 4.359375 0 C 4.160156 0.0625 3.945312 0.113281 3.71875 0.15625 C 3.5 0.207031 3.273438 0.234375 3.046875 0.234375 C 2.796875 0.234375 2.550781 0.195312 2.3125 0.125 C 2.082031 0.0625 1.875 -0.046875 1.6875 -0.203125 C 1.5 -0.359375 1.347656 -0.566406 1.234375 -0.828125 C 1.128906 -1.085938 1.078125 -1.410156 1.078125 -1.796875 L 1.078125 -4.5 L 0.234375 -4.5 L 0.234375 -5.625 L 1.078125 -5.984375 L 1.078125 -7.328125 L 2.75 -7.328125 L 2.75 -5.984375 L 4.359375 -5.984375 L 4.359375 -4.5 L 2.75 -4.5 Z M 2.75 -2.140625 "/></g></g></g><g fill="#ffffff" fill-opacity="1"><g transform="translate(149.301242, 277.147892)"><g><path d="M 8.40625 -5.984375 L 10.125 -5.984375 L 8.328125 0 L 6.21875 0 L 5.34375 -2.890625 L 5.265625 -3.734375 L 5.15625 -2.890625 L 4.296875 0 L 2.203125 0 L 0.390625 -5.984375 L 2.109375 -5.984375 L 3.359375 -1.65625 L 4.5625 -5.984375 L 5.953125 -5.984375 L 7.15625 -1.625 Z M 8.40625 -5.984375 "/></g></g></g><g fill="#ffffff" fill-opacity="1"><g transform="translate(162.000258, 277.147892)"><g><path d="M 6.796875 -5.984375 L 6.796875 0 L 5.375 0 L 5.203125 -0.640625 C 4.960938 -0.328125 4.679688 -0.117188 4.359375 -0.015625 C 4.035156 0.0859375 3.695312 0.140625 3.34375 0.140625 C 2.914062 0.140625 2.519531 0.0625 2.15625 -0.09375 C 1.800781 -0.257812 1.488281 -0.484375 1.21875 -0.765625 C 0.957031 -1.054688 0.753906 -1.394531 0.609375 -1.78125 C 0.460938 -2.164062 0.390625 -2.570312 0.390625 -3 C 0.390625 -3.4375 0.460938 -3.84375 0.609375 -4.21875 C 0.753906 -4.601562 0.957031 -4.9375 1.21875 -5.21875 C 1.488281 -5.507812 1.800781 -5.738281 2.15625 -5.90625 C 2.519531 -6.070312 2.914062 -6.15625 3.34375 -6.15625 C 3.726562 -6.15625 4.082031 -6.09375 4.40625 -5.96875 C 4.726562 -5.851562 4.992188 -5.660156 5.203125 -5.390625 L 5.375 -5.984375 Z M 5.140625 -2.984375 C 5.140625 -3.296875 5.097656 -3.554688 5.015625 -3.765625 C 4.929688 -3.984375 4.816406 -4.15625 4.671875 -4.28125 C 4.535156 -4.414062 4.367188 -4.515625 4.171875 -4.578125 C 3.984375 -4.640625 3.785156 -4.671875 3.578125 -4.671875 C 3.359375 -4.671875 3.148438 -4.625 2.953125 -4.53125 C 2.765625 -4.445312 2.597656 -4.328125 2.453125 -4.171875 C 2.316406 -4.023438 2.207031 -3.847656 2.125 -3.640625 C 2.039062 -3.441406 2 -3.226562 2 -3 C 2 -2.769531 2.039062 -2.550781 2.125 -2.34375 C 2.207031 -2.144531 2.316406 -1.972656 2.453125 -1.828125 C 2.597656 -1.679688 2.765625 -1.5625 2.953125 -1.46875 C 3.148438 -1.382812 3.359375 -1.34375 3.578125 -1.34375 C 4.003906 -1.34375 4.367188 -1.472656 4.671875 -1.734375 C 4.972656 -2.003906 5.128906 -2.421875 5.140625 -2.984375 Z M 5.140625 -2.984375 "/></g></g></g><g fill="#ffffff" fill-opacity="1"><g transform="translate(171.527853, 277.147892)"><g><path d="M 2.1875 -5.15625 C 2.257812 -5.28125 2.347656 -5.398438 2.453125 -5.515625 C 2.566406 -5.628906 2.691406 -5.734375 2.828125 -5.828125 C 2.972656 -5.921875 3.140625 -5.992188 3.328125 -6.046875 C 3.515625 -6.109375 3.722656 -6.140625 3.953125 -6.140625 C 4.222656 -6.140625 4.539062 -6.09375 4.90625 -6 L 4.75 -4.515625 C 4.664062 -4.523438 4.578125 -4.546875 4.484375 -4.578125 C 4.410156 -4.585938 4.328125 -4.597656 4.234375 -4.609375 C 4.148438 -4.617188 4.070312 -4.625 4 -4.625 C 3.75 -4.625 3.507812 -4.585938 3.28125 -4.515625 C 3.0625 -4.453125 2.867188 -4.351562 2.703125 -4.21875 C 2.546875 -4.09375 2.421875 -3.9375 2.328125 -3.75 C 2.234375 -3.570312 2.1875 -3.378906 2.1875 -3.171875 L 2.1875 0 L 0.515625 0 L 0.515625 -5.984375 L 2.03125 -5.984375 Z M 2.1875 -5.15625 "/></g></g></g><g fill="#ffffff" fill-opacity="1"><g transform="translate(178.691945, 277.147892)"><g><path d="M 3.5 -6.15625 C 3.945312 -6.15625 4.351562 -6.0625 4.71875 -5.875 C 5.09375 -5.695312 5.410156 -5.460938 5.671875 -5.171875 C 5.941406 -4.878906 6.148438 -4.539062 6.296875 -4.15625 C 6.441406 -3.769531 6.515625 -3.378906 6.515625 -2.984375 C 6.515625 -2.742188 6.484375 -2.484375 6.421875 -2.203125 L 2.140625 -2.203125 C 2.304688 -1.929688 2.535156 -1.703125 2.828125 -1.515625 C 3.128906 -1.328125 3.453125 -1.234375 3.796875 -1.234375 C 4.140625 -1.234375 4.441406 -1.257812 4.703125 -1.3125 C 4.972656 -1.375 5.222656 -1.445312 5.453125 -1.53125 L 6 -0.5 C 5.707031 -0.289062 5.367188 -0.128906 4.984375 -0.015625 C 4.609375 0.0859375 4.203125 0.140625 3.765625 0.140625 C 3.285156 0.140625 2.84375 0.0625 2.4375 -0.09375 C 2.03125 -0.257812 1.671875 -0.484375 1.359375 -0.765625 C 1.054688 -1.046875 0.816406 -1.378906 0.640625 -1.765625 C 0.460938 -2.160156 0.375 -2.570312 0.375 -3 C 0.375 -3.425781 0.453125 -3.828125 0.609375 -4.203125 C 0.773438 -4.585938 1 -4.921875 1.28125 -5.203125 C 1.570312 -5.492188 1.90625 -5.722656 2.28125 -5.890625 C 2.65625 -6.066406 3.0625 -6.15625 3.5 -6.15625 Z M 4.859375 -3.5 C 4.765625 -3.84375 4.59375 -4.125 4.34375 -4.34375 C 4.09375 -4.5625 3.8125 -4.671875 3.5 -4.671875 C 3.175781 -4.671875 2.882812 -4.5625 2.625 -4.34375 C 2.363281 -4.125 2.1875 -3.84375 2.09375 -3.5 Z M 4.859375 -3.5 "/></g></g></g><g fill="#ffffff" fill-opacity="1"><g transform="translate(188.062768, 277.147892)"><g/></g></g><g fill="#ffffff" fill-opacity="1"><g transform="translate(193.574814, 277.147892)"><g><path d="M 0.578125 -8.546875 L 5.921875 -8.546875 L 5.921875 -6.890625 L 2.40625 -6.890625 L 2.40625 -5.34375 L 5.5 -5.34375 L 5.5 -3.671875 L 2.40625 -3.671875 L 2.40625 -1.65625 L 5.921875 -1.65625 L 5.921875 0 L 0.578125 0 Z M 0.578125 -8.546875 "/></g></g></g><g fill="#ffffff" fill-opacity="1"><g transform="translate(202.270355, 277.147892)"><g><path d="M 3.65625 -5.984375 C 3.882812 -5.984375 4.132812 -5.953125 4.40625 -5.890625 C 4.675781 -5.828125 4.929688 -5.707031 5.171875 -5.53125 C 5.410156 -5.351562 5.613281 -5.101562 5.78125 -4.78125 C 5.945312 -4.46875 6.03125 -4.066406 6.03125 -3.578125 L 6.03125 0 L 4.359375 0 L 4.359375 -3.515625 C 4.359375 -3.691406 4.328125 -3.84375 4.265625 -3.96875 C 4.203125 -4.101562 4.117188 -4.207031 4.015625 -4.28125 C 3.921875 -4.363281 3.804688 -4.421875 3.671875 -4.453125 C 3.546875 -4.492188 3.421875 -4.515625 3.296875 -4.515625 C 3.191406 -4.515625 3.078125 -4.492188 2.953125 -4.453125 C 2.828125 -4.421875 2.707031 -4.363281 2.59375 -4.28125 C 2.488281 -4.195312 2.398438 -4.09375 2.328125 -3.96875 C 2.253906 -3.84375 2.21875 -3.691406 2.21875 -3.515625 L 2.21875 0 L 0.5625 0 L 0.5625 -5.984375 L 1.984375 -5.984375 L 2.21875 -5.53125 C 2.414062 -5.664062 2.632812 -5.773438 2.875 -5.859375 C 3.113281 -5.941406 3.375 -5.984375 3.65625 -5.984375 Z M 3.65625 -5.984375 "/></g></g></g><g fill="#ffffff" fill-opacity="1"><g transform="translate(210.990008, 277.147892)"><g><path d="M 5.234375 -5.984375 L 6.65625 -5.984375 L 6.65625 -2.03125 C 6.65625 -1.570312 6.648438 -1.160156 6.640625 -0.796875 C 6.628906 -0.441406 6.597656 -0.125 6.546875 0.15625 C 6.503906 0.445312 6.425781 0.703125 6.3125 0.921875 C 6.207031 1.148438 6.054688 1.363281 5.859375 1.5625 C 5.503906 1.90625 5.109375 2.140625 4.671875 2.265625 C 4.234375 2.390625 3.773438 2.453125 3.296875 2.453125 C 2.878906 2.453125 2.488281 2.40625 2.125 2.3125 C 1.769531 2.21875 1.445312 2.085938 1.15625 1.921875 L 1.15625 0.359375 C 1.226562 0.472656 1.332031 0.570312 1.46875 0.65625 C 1.601562 0.75 1.753906 0.828125 1.921875 0.890625 C 2.097656 0.953125 2.285156 1 2.484375 1.03125 C 2.679688 1.070312 2.878906 1.09375 3.078125 1.09375 C 3.335938 1.09375 3.582031 1.054688 3.8125 0.984375 C 4.050781 0.921875 4.253906 0.8125 4.421875 0.65625 C 4.597656 0.507812 4.738281 0.320312 4.84375 0.09375 C 4.945312 -0.132812 5 -0.414062 5 -0.75 L 5 -0.875 C 4.757812 -0.664062 4.488281 -0.5 4.1875 -0.375 C 3.882812 -0.25 3.550781 -0.1875 3.1875 -0.1875 C 2.78125 -0.1875 2.40625 -0.265625 2.0625 -0.421875 C 1.726562 -0.578125 1.4375 -0.785156 1.1875 -1.046875 C 0.9375 -1.316406 0.738281 -1.632812 0.59375 -2 C 0.457031 -2.375 0.390625 -2.765625 0.390625 -3.171875 C 0.390625 -3.578125 0.457031 -3.960938 0.59375 -4.328125 C 0.738281 -4.691406 0.9375 -5.007812 1.1875 -5.28125 C 1.4375 -5.550781 1.726562 -5.765625 2.0625 -5.921875 C 2.40625 -6.078125 2.78125 -6.15625 3.1875 -6.15625 C 3.5625 -6.15625 3.898438 -6.101562 4.203125 -6 C 4.515625 -5.894531 4.78125 -5.738281 5 -5.53125 Z M 3.515625 -1.671875 C 3.773438 -1.671875 4 -1.710938 4.1875 -1.796875 C 4.375 -1.890625 4.523438 -2.007812 4.640625 -2.15625 C 4.765625 -2.300781 4.851562 -2.460938 4.90625 -2.640625 C 4.96875 -2.816406 5 -2.988281 5 -3.15625 C 5 -3.34375 4.96875 -3.523438 4.90625 -3.703125 C 4.84375 -3.890625 4.75 -4.050781 4.625 -4.1875 C 4.507812 -4.332031 4.359375 -4.445312 4.171875 -4.53125 C 3.984375 -4.625 3.765625 -4.671875 3.515625 -4.671875 C 3.304688 -4.671875 3.113281 -4.628906 2.9375 -4.546875 C 2.757812 -4.460938 2.601562 -4.351562 2.46875 -4.21875 C 2.34375 -4.082031 2.238281 -3.921875 2.15625 -3.734375 C 2.082031 -3.554688 2.046875 -3.363281 2.046875 -3.15625 C 2.046875 -2.945312 2.082031 -2.75 2.15625 -2.5625 C 2.238281 -2.382812 2.34375 -2.226562 2.46875 -2.09375 C 2.601562 -1.957031 2.757812 -1.851562 2.9375 -1.78125 C 3.113281 -1.707031 3.304688 -1.671875 3.515625 -1.671875 Z M 3.515625 -1.671875 "/></g></g></g><g fill="#ffffff" fill-opacity="1"><g transform="translate(220.336724, 277.147892)"><g><path d="M 2.359375 0 L 0.6875 0 L 0.6875 -5.984375 L 2.359375 -5.984375 Z M 1.515625 -6.796875 C 1.265625 -6.796875 1.050781 -6.882812 0.875 -7.0625 C 0.695312 -7.238281 0.609375 -7.457031 0.609375 -7.71875 C 0.609375 -7.976562 0.695312 -8.195312 0.875 -8.375 C 1.050781 -8.5625 1.265625 -8.65625 1.515625 -8.65625 C 1.773438 -8.65625 1.992188 -8.5625 2.171875 -8.375 C 2.347656 -8.195312 2.4375 -7.976562 2.4375 -7.71875 C 2.4375 -7.457031 2.347656 -7.238281 2.171875 -7.0625 C 1.992188 -6.882812 1.773438 -6.796875 1.515625 -6.796875 Z M 1.515625 -6.796875 "/></g></g></g><g fill="#ffffff" fill-opacity="1"><g transform="translate(225.583485, 277.147892)"><g><path d="M 3.65625 -5.984375 C 3.882812 -5.984375 4.132812 -5.953125 4.40625 -5.890625 C 4.675781 -5.828125 4.929688 -5.707031 5.171875 -5.53125 C 5.410156 -5.351562 5.613281 -5.101562 5.78125 -4.78125 C 5.945312 -4.46875 6.03125 -4.066406 6.03125 -3.578125 L 6.03125 0 L 4.359375 0 L 4.359375 -3.515625 C 4.359375 -3.691406 4.328125 -3.84375 4.265625 -3.96875 C 4.203125 -4.101562 4.117188 -4.207031 4.015625 -4.28125 C 3.921875 -4.363281 3.804688 -4.421875 3.671875 -4.453125 C 3.546875 -4.492188 3.421875 -4.515625 3.296875 -4.515625 C 3.191406 -4.515625 3.078125 -4.492188 2.953125 -4.453125 C 2.828125 -4.421875 2.707031 -4.363281 2.59375 -4.28125 C 2.488281 -4.195312 2.398438 -4.09375 2.328125 -3.96875 C 2.253906 -3.84375 2.21875 -3.691406 2.21875 -3.515625 L 2.21875 0 L 0.5625 0 L 0.5625 -5.984375 L 1.984375 -5.984375 L 2.21875 -5.53125 C 2.414062 -5.664062 2.632812 -5.773438 2.875 -5.859375 C 3.113281 -5.941406 3.375 -5.984375 3.65625 -5.984375 Z M 3.65625 -5.984375 "/></g></g></g><g fill="#ffffff" fill-opacity="1"><g transform="translate(234.303138, 277.147892)"><g><path d="M 3.5 -6.15625 C 3.945312 -6.15625 4.351562 -6.0625 4.71875 -5.875 C 5.09375 -5.695312 5.410156 -5.460938 5.671875 -5.171875 C 5.941406 -4.878906 6.148438 -4.539062 6.296875 -4.15625 C 6.441406 -3.769531 6.515625 -3.378906 6.515625 -2.984375 C 6.515625 -2.742188 6.484375 -2.484375 6.421875 -2.203125 L 2.140625 -2.203125 C 2.304688 -1.929688 2.535156 -1.703125 2.828125 -1.515625 C 3.128906 -1.328125 3.453125 -1.234375 3.796875 -1.234375 C 4.140625 -1.234375 4.441406 -1.257812 4.703125 -1.3125 C 4.972656 -1.375 5.222656 -1.445312 5.453125 -1.53125 L 6 -0.5 C 5.707031 -0.289062 5.367188 -0.128906 4.984375 -0.015625 C 4.609375 0.0859375 4.203125 0.140625 3.765625 0.140625 C 3.285156 0.140625 2.84375 0.0625 2.4375 -0.09375 C 2.03125 -0.257812 1.671875 -0.484375 1.359375 -0.765625 C 1.054688 -1.046875 0.816406 -1.378906 0.640625 -1.765625 C 0.460938 -2.160156 0.375 -2.570312 0.375 -3 C 0.375 -3.425781 0.453125 -3.828125 0.609375 -4.203125 C 0.773438 -4.585938 1 -4.921875 1.28125 -5.203125 C 1.570312 -5.492188 1.90625 -5.722656 2.28125 -5.890625 C 2.65625 -6.066406 3.0625 -6.15625 3.5 -6.15625 Z M 4.859375 -3.5 C 4.765625 -3.84375 4.59375 -4.125 4.34375 -4.34375 C 4.09375 -4.5625 3.8125 -4.671875 3.5 -4.671875 C 3.175781 -4.671875 2.882812 -4.5625 2.625 -4.34375 C 2.363281 -4.125 2.1875 -3.84375 2.09375 -3.5 Z M 4.859375 -3.5 "/></g></g></g><g fill="#ffffff" fill-opacity="1"><g transform="translate(243.67396, 277.147892)"><g><path d="M 3.5 -6.15625 C 3.945312 -6.15625 4.351562 -6.0625 4.71875 -5.875 C 5.09375 -5.695312 5.410156 -5.460938 5.671875 -5.171875 C 5.941406 -4.878906 6.148438 -4.539062 6.296875 -4.15625 C 6.441406 -3.769531 6.515625 -3.378906 6.515625 -2.984375 C 6.515625 -2.742188 6.484375 -2.484375 6.421875 -2.203125 L 2.140625 -2.203125 C 2.304688 -1.929688 2.535156 -1.703125 2.828125 -1.515625 C 3.128906 -1.328125 3.453125 -1.234375 3.796875 -1.234375 C 4.140625 -1.234375 4.441406 -1.257812 4.703125 -1.3125 C 4.972656 -1.375 5.222656 -1.445312 5.453125 -1.53125 L 6 -0.5 C 5.707031 -0.289062 5.367188 -0.128906 4.984375 -0.015625 C 4.609375 0.0859375 4.203125 0.140625 3.765625 0.140625 C 3.285156 0.140625 2.84375 0.0625 2.4375 -0.09375 C 2.03125 -0.257812 1.671875 -0.484375 1.359375 -0.765625 C 1.054688 -1.046875 0.816406 -1.378906 0.640625 -1.765625 C 0.460938 -2.160156 0.375 -2.570312 0.375 -3 C 0.375 -3.425781 0.453125 -3.828125 0.609375 -4.203125 C 0.773438 -4.585938 1 -4.921875 1.28125 -5.203125 C 1.570312 -5.492188 1.90625 -5.722656 2.28125 -5.890625 C 2.65625 -6.066406 3.0625 -6.15625 3.5 -6.15625 Z M 4.859375 -3.5 C 4.765625 -3.84375 4.59375 -4.125 4.34375 -4.34375 C 4.09375 -4.5625 3.8125 -4.671875 3.5 -4.671875 C 3.175781 -4.671875 2.882812 -4.5625 2.625 -4.34375 C 2.363281 -4.125 2.1875 -3.84375 2.09375 -3.5 Z M 4.859375 -3.5 "/></g></g></g><g fill="#ffffff" fill-opacity="1"><g transform="translate(253.044783, 277.147892)"><g><path d="M 2.1875 -5.15625 C 2.257812 -5.28125 2.347656 -5.398438 2.453125 -5.515625 C 2.566406 -5.628906 2.691406 -5.734375 2.828125 -5.828125 C 2.972656 -5.921875 3.140625 -5.992188 3.328125 -6.046875 C 3.515625 -6.109375 3.722656 -6.140625 3.953125 -6.140625 C 4.222656 -6.140625 4.539062 -6.09375 4.90625 -6 L 4.75 -4.515625 C 4.664062 -4.523438 4.578125 -4.546875 4.484375 -4.578125 C 4.410156 -4.585938 4.328125 -4.597656 4.234375 -4.609375 C 4.148438 -4.617188 4.070312 -4.625 4 -4.625 C 3.75 -4.625 3.507812 -4.585938 3.28125 -4.515625 C 3.0625 -4.453125 2.867188 -4.351562 2.703125 -4.21875 C 2.546875 -4.09375 2.421875 -3.9375 2.328125 -3.75 C 2.234375 -3.570312 2.1875 -3.378906 2.1875 -3.171875 L 2.1875 0 L 0.515625 0 L 0.515625 -5.984375 L 2.03125 -5.984375 Z M 2.1875 -5.15625 "/></g></g></g></svg>